<svg width="76" height="76" viewBox="0 0 76 76" fill="none" xmlns="http://www.w3.org/2000/svg">
<circle cx="38" cy="38" r="38" fill="white" fill-opacity="0.1"/>
<circle cx="38" cy="38" r="37.75" stroke="white" stroke-opacity="0.5" stroke-width="0.5"/>
<g clip-path="url(#clip0_3967_62762)">
<path d="M20 54.0584C20 57.0638 22.4448 59.5083 25.4499 59.5083H51.5501C54.5549 59.5083 57 57.0638 57 54.0584V32.3567H20V54.0584ZM46.6297 40.2526C46.4253 39.9146 46.1477 39.6518 45.7962 39.4641C45.4447 39.2767 45.0614 39.183 44.6461 39.183C43.7689 39.183 43.0794 39.5681 42.5773 40.3378C42.5104 40.4381 42.3981 40.7129 42.2409 41.1612C42.0834 41.6099 41.9061 41.9545 41.7086 42.1956C41.5112 42.4368 41.2216 42.5572 40.8399 42.5572C40.5051 42.5572 40.2275 42.4468 40.0065 42.2258C39.7854 42.0048 39.6751 41.7036 39.6751 41.3219C39.6751 40.86 39.7788 40.3777 39.9863 39.8756C40.1938 39.3735 40.5035 38.9183 40.9154 38.5099C41.3273 38.1014 41.8495 37.7716 42.4821 37.5207C43.1147 37.2695 43.8563 37.1441 44.7065 37.1441C45.7308 37.1441 46.6045 37.3047 47.3277 37.6261C47.7961 37.8405 48.208 38.1351 48.563 38.5099C48.9176 38.8849 49.194 39.3182 49.3914 39.8105C49.5889 40.3026 49.6876 40.8132 49.6876 41.342C49.6876 42.1723 49.4816 42.9272 49.0701 43.6067C48.6582 44.2864 48.2382 44.8187 47.8096 45.2035C47.3811 45.5887 46.663 46.1926 45.6553 47.0164C44.6477 47.8398 43.9563 48.4793 43.5815 48.9345C43.4209 49.1153 43.2568 49.3329 43.0895 49.5872H48.3319C48.8541 49.5872 49.2524 49.6945 49.5269 49.9086C49.8014 50.123 49.9388 50.4141 49.9388 50.7823C49.9388 51.1105 49.83 51.3885 49.6124 51.6158C49.3949 51.8434 49.0651 51.9572 48.6233 51.9572H41.2317C40.7296 51.9572 40.3378 51.8182 40.0568 51.5403C39.7757 51.2627 39.6348 50.936 39.6348 50.5613C39.6348 50.3201 39.7251 50.0007 39.9058 49.6023C40.0866 49.204 40.2841 48.8912 40.4985 48.6632C41.3889 47.7392 42.1922 46.9475 42.9087 46.2882C43.6252 45.6289 44.1374 45.1953 44.4452 44.9875C44.9942 44.5992 45.451 44.2091 45.816 43.8176C46.1807 43.4259 46.4586 43.0244 46.6495 42.6125C46.8403 42.2006 46.9356 41.7976 46.9356 41.4024C46.9359 40.9742 46.8337 40.5906 46.6297 40.2526ZM27.8944 41.5328C28.1085 41.3722 28.487 41.1647 29.0294 40.9103C29.8393 40.5286 30.4873 40.1268 30.9727 39.7052C31.4581 39.2833 31.8882 38.8114 32.2633 38.2891C32.6381 37.7669 32.8824 37.4456 32.9965 37.3249C33.1103 37.2045 33.3244 37.1441 33.6392 37.1441C33.9941 37.1441 34.2783 37.2815 34.4928 37.556C34.7069 37.8307 34.8141 38.2087 34.8141 38.691V50.1903C34.8141 51.5359 34.3554 52.2087 33.4382 52.2087C33.0298 52.2087 32.7016 52.0713 32.4538 51.7969C32.2061 51.5224 32.0822 51.1174 32.0822 50.5817V41.4426C30.3816 42.748 29.2366 43.401 28.6474 43.401C28.3663 43.401 28.1166 43.2891 27.8991 43.0646C27.6815 42.8405 27.5727 42.5811 27.5727 42.2862C27.573 41.9447 27.6799 41.6938 27.8944 41.5328Z" fill="#28B34B"/>
<path d="M51.5501 22.5083H49.8143V23.4669C50.4217 24.0504 50.7707 24.8559 50.7707 25.7193C50.7707 27.4454 49.3666 28.8495 47.6405 28.8495C45.9147 28.8495 44.5109 27.4454 44.5109 25.7193C44.5109 24.8556 44.8599 24.0504 45.467 23.4669V22.5083H31.533V23.4669C32.1401 24.0504 32.4891 24.8556 32.4891 25.7193C32.4891 27.4454 31.0852 28.8495 29.3595 28.8495C27.6334 28.8495 26.2293 27.4454 26.2293 25.7193C26.2293 24.8559 26.5783 24.0504 27.1857 23.4669V22.5083H25.4499C22.4451 22.5083 20 24.9531 20 27.9581V31.2701H57V27.9581C56.9997 24.9531 54.5549 22.5083 51.5501 22.5083Z" fill="#28B34B"/>
<path d="M29.3581 27.7626C30.4862 27.7626 31.4008 26.848 31.4008 25.7193C31.4008 24.9908 31.0191 24.3516 30.4447 23.9901V16.5786C30.4447 15.9781 29.9576 15.4917 29.3578 15.4917C28.7573 15.4917 28.2709 15.9781 28.2709 16.5786V23.9901C27.6965 24.3516 27.3145 24.9908 27.3145 25.7193C27.3148 26.8477 28.23 27.7626 29.3581 27.7626Z" fill="#28B34B"/>
<path d="M47.6387 27.7626C48.7668 27.7626 49.682 26.848 49.682 25.7193C49.682 24.9908 49.3 24.3516 48.7256 23.9901V16.5786C48.7256 15.9781 48.2392 15.4917 47.6387 15.4917C47.0388 15.4917 46.5518 15.9781 46.5518 16.5786V23.9901C45.9774 24.3516 45.5957 24.9908 45.5957 25.7193C45.596 26.8477 46.5106 27.7626 47.6387 27.7626Z" fill="#28B34B"/>
</g>
<defs>
<clipPath id="clip0_3967_62762">
<rect width="41" height="41" fill="white" transform="translate(18 17)"/>
</clipPath>
</defs>
</svg>
