<svg width="76" height="76" viewBox="0 0 76 76" fill="none" xmlns="http://www.w3.org/2000/svg">
<circle cx="38" cy="38" r="38" fill="white" fill-opacity="0.1"/>
<circle cx="38" cy="38" r="37.75" stroke="white" stroke-opacity="0.5" stroke-width="0.5"/>
<g clip-path="url(#clip0_3967_62735)">
<path d="M52.37 42.7047V36.3236C52.37 35.6559 51.8287 35.1146 51.1609 35.1146H20.3028C19.6351 35.1146 19.0938 35.6559 19.0938 36.3236V42.7047C19.0938 48.3432 22.2146 53.3011 26.9001 56.1019H20.3036C19.6358 56.1019 19.0945 56.6432 19.0945 57.311C19.0945 57.9787 19.6357 58.5201 20.3036 58.5201H51.161C51.8287 58.5201 52.3701 57.9788 52.3701 57.311C52.3701 56.6433 51.8288 56.1019 51.161 56.1019H44.5638C49.2491 53.3011 52.37 48.3432 52.37 42.7047Z" fill="#28B34B"/>
<path d="M54.7869 37.2906V39.7621C56.3648 40.196 57.5279 41.6427 57.5279 43.3566C57.5279 45.2645 56.087 46.8413 54.2365 47.0583C54.0209 47.8973 53.7447 48.7137 53.4121 49.5029H53.7997C57.1888 49.5029 59.946 46.7457 59.946 43.3566C59.946 40.3036 57.7081 37.7645 54.7869 37.2906Z" fill="#28B34B"/>
<path d="M44.1628 25.3896C45.7404 24.1152 46.0976 22.7528 46.1193 21.8343C46.1724 19.5998 44.4079 17.9646 44.2065 17.7856C43.7076 17.3419 42.9434 17.3866 42.4995 17.8856C42.0558 18.3845 42.1005 19.1487 42.5995 19.5925C42.6108 19.6026 43.7287 20.6485 43.7019 21.777C43.6876 22.3782 43.3413 22.9446 42.6433 23.5085C41.0656 24.7829 40.7084 26.1453 40.6867 27.0638C40.6336 29.2983 42.3981 30.9335 42.5995 31.1126C42.8304 31.3179 43.1187 31.4191 43.4057 31.4191C43.7388 31.4191 44.0704 31.2828 44.3088 31.0147C44.7526 30.5157 44.7103 29.7537 44.2113 29.3099C43.8939 29.0214 43.0765 28.0641 43.1043 27.112C43.1219 26.5142 43.4681 25.9507 44.1628 25.3896Z" fill="#28B34B"/>
<path d="M36.4909 25.3896C38.0685 24.1152 38.4257 22.7528 38.4474 21.8343C38.5005 19.5998 36.736 17.9646 36.5346 17.7856C36.0358 17.3419 35.2715 17.3866 34.8277 17.8856C34.3839 18.3845 34.4286 19.1487 34.9276 19.5925C34.9389 19.6026 36.0568 20.6485 36.03 21.777C36.0157 22.3782 35.6695 22.9446 34.9714 23.5085C33.3937 24.7829 33.0366 26.1453 33.0148 27.0638C32.9618 29.2983 34.7263 30.9335 34.9276 31.1126C35.1585 31.3179 35.4468 31.4191 35.7338 31.4191C36.067 31.4191 36.3986 31.2828 36.637 31.0147C37.0807 30.5157 37.0384 29.7537 36.5394 29.3099C36.2221 29.0214 35.4046 28.0641 35.4324 27.112C35.45 26.5142 35.7962 25.9507 36.4909 25.3896Z" fill="#28B34B"/>
<path d="M28.821 25.3897C30.3986 24.1153 30.7558 22.7529 30.7775 21.8344C30.8306 19.5999 29.0661 17.9647 28.8647 17.7857C28.3658 17.342 27.6016 17.3867 27.1577 17.8857C26.714 18.3846 26.7587 19.1488 27.2577 19.5926C27.269 19.6027 28.3869 20.6486 28.3601 21.7771C28.3458 22.3784 27.9995 22.9448 27.3015 23.5087C25.7238 24.7831 25.3666 26.1454 25.3449 27.0639C25.2919 29.2984 27.0564 30.9335 27.2578 31.1126C27.4881 31.3175 27.775 31.4182 28.0609 31.4182C28.3941 31.4182 28.7258 31.2813 28.9648 31.0127C29.4085 30.5137 29.3638 29.7496 28.8648 29.3057C28.8535 29.2956 27.7357 28.2497 27.7624 27.1212C27.7766 26.52 28.1229 25.9535 28.821 25.3897Z" fill="#28B34B"/>
</g>
<defs>
<clipPath id="clip0_3967_62735">
<rect width="41.04" height="41.04" fill="white" transform="translate(19 17.48)"/>
</clipPath>
</defs>
</svg>
