<svg width="76" height="76" viewBox="0 0 76 76" fill="none" xmlns="http://www.w3.org/2000/svg">
<circle cx="38" cy="38" r="38" fill="white" fill-opacity="0.1"/>
<circle cx="38" cy="38" r="37.75" stroke="white" stroke-opacity="0.5" stroke-width="0.5"/>
<path d="M58.9616 30.7837L56.6425 21.5023C56.3581 20.362 55.3331 19.5625 54.1569 19.5625H22.8457C21.6695 19.5625 20.6445 20.362 20.3575 21.5023L18.0384 30.7837C18.0128 30.8836 18 30.9887 18 31.0938C18 34.6249 20.7291 37.5 24.0859 37.5C26.036 37.5 27.7759 36.5288 28.8906 35.0221C30.0053 36.5288 31.7452 37.5 33.6953 37.5C35.6454 37.5 37.3853 36.5288 38.5 35.0221C39.6147 36.5288 41.3521 37.5 43.3047 37.5C45.2573 37.5 46.9947 36.5288 48.1094 35.0221C49.2241 36.5288 50.9614 37.5 52.9141 37.5C56.2709 37.5 59 34.6249 59 31.0938C59 30.9887 58.9872 30.8836 58.9616 30.7837Z" fill="#28B34B"/>
<path d="M52.9141 40.0625C51.169 40.0625 49.5111 39.5295 48.1094 38.5558C45.306 40.5058 41.3034 40.5058 38.5 38.5558C35.6966 40.5058 31.694 40.5058 28.8906 38.5558C27.4889 39.5295 25.831 40.0625 24.0859 40.0625C22.8277 40.0625 21.6413 39.7678 20.5625 39.2656V52.875C20.5625 54.2895 21.7105 55.4375 23.125 55.4375H33.375V45.1875H43.625V55.4375H53.875C55.2895 55.4375 56.4375 54.2895 56.4375 52.875V39.2656C55.3587 39.7678 54.1722 40.0625 52.9141 40.0625Z" fill="#28B34B"/>
</svg>
