<svg width="22" height="22" viewBox="0 0 22 22" fill="none" xmlns="http://www.w3.org/2000/svg">
<path fill-rule="evenodd" clip-rule="evenodd" d="M4.58443 16.1208C4.22647 16.4789 4.22653 17.0592 4.58454 17.4172C4.94256 17.7751 5.52295 17.7751 5.8809 17.4171L11.0007 12.2964L16.1209 17.4166C16.4789 17.7746 17.0593 17.7746 17.4173 17.4166C17.7752 17.0587 17.7752 16.4782 17.4173 16.1203L12.297 11L17.4169 5.87912C17.7748 5.52111 17.7748 4.94071 17.4167 4.58277C17.0588 4.22481 16.4783 4.22486 16.1204 4.58288L11.0005 9.70362L5.88028 4.58332C5.5223 4.22534 4.9419 4.22534 4.58392 4.58332C4.22593 4.9413 4.22593 5.5217 4.58392 5.87968L9.70435 11.0001L4.58443 16.1208Z" fill="#686868"/>
</svg>
