<svg width="18" height="18" viewBox="0 0 18 18" fill="none" xmlns="http://www.w3.org/2000/svg">
<path d="M12.7936 9.4314C10.9876 9.4746 10.9846 12.1218 12.79 12.1698C14.596 12.126 14.5984 9.48 12.7936 9.4314ZM12.3226 10.8024C12.3232 10.188 13.2574 10.1856 13.261 10.8C13.2586 11.4126 12.3274 11.415 12.3226 10.8024Z" fill="#28B34B"/>
<path d="M9.19194 8.5686C10.9973 8.523 10.9973 5.8758 9.19194 5.8302C7.38594 5.8764 7.38714 8.5218 9.19194 8.5686ZM9.19194 6.7308C9.80574 6.7332 9.80574 7.6668 9.19194 7.6692C8.57814 7.6662 8.57874 6.7344 9.19194 6.7308Z" fill="#28B34B"/>
<path d="M13.9145 6.08275C13.7387 5.90635 13.4525 5.90575 13.2761 6.08155L8.06206 11.271C7.88266 11.4432 7.87726 11.7281 8.04946 11.9069C8.22526 12.0905 8.51986 12.0912 8.69686 11.9088L13.9115 6.71995C14.0885 6.54475 14.0897 6.25975 13.9145 6.08275Z" fill="#28B34B"/>
<path d="M5.31133 6.32214C5.06293 6.32214 4.86133 6.52374 4.86133 6.77214V7.92594C4.86133 8.17434 5.06293 8.37594 5.31133 8.37594C5.55973 8.37594 5.76133 8.17434 5.76133 7.92594V6.77214C5.76133 6.52374 5.55973 6.32214 5.31133 6.32214Z" fill="#28B34B"/>
<path d="M5.31133 9.62463C5.06293 9.62463 4.86133 9.82623 4.86133 10.0746V11.2278C4.86133 11.4762 5.06293 11.6778 5.31133 11.6778C5.55973 11.6778 5.76133 11.4762 5.76133 11.2278V10.0746C5.76133 9.82623 5.55973 9.62463 5.31133 9.62463Z" fill="#28B34B"/>
<path d="M17.0278 7.51318C17.536 7.24078 17.8522 6.70978 17.8504 6.13318V4.58998C17.8492 3.72298 17.1472 3.02098 16.2802 3.01978H1.7206C0.853604 3.02098 0.151604 3.72298 0.150404 4.58998V6.13198C0.148604 6.70858 0.464804 7.23958 0.973004 7.51198C1.7944 7.95178 2.104 8.97417 1.6642 9.79558C1.507 10.089 1.2664 10.3296 0.973004 10.4868C0.464204 10.7598 0.148004 11.2908 0.150404 11.868V13.41C0.151604 14.277 0.853604 14.979 1.7206 14.9802H16.2802C17.1472 14.979 17.8492 14.277 17.8504 13.41V11.868C17.8522 11.2914 17.536 10.7604 17.0278 10.488C15.8494 9.89817 15.8584 8.10298 17.0278 7.51318ZM15.5458 10.2204C15.7864 10.6698 16.1548 11.0382 16.6042 11.2788C16.8196 11.3952 16.9528 11.6208 16.9504 11.8656V13.4076C16.9498 13.7778 16.6504 14.0772 16.2802 14.0778H5.76041C5.73581 13.6878 5.91521 12.9414 5.31041 12.9264C4.70501 12.9408 4.885 13.6908 4.8604 14.0802H1.7206C1.3504 14.0796 1.051 13.7802 1.0504 13.41V11.868C1.048 11.6232 1.1812 11.3976 1.3966 11.2812C2.656 10.6068 3.1294 9.03897 2.455 7.77957C2.2144 7.33017 1.846 6.96178 1.3966 6.72117C1.1812 6.60477 1.048 6.37918 1.0504 6.13438V4.58998C1.051 4.21978 1.3504 3.92038 1.7206 3.91978H4.8604C4.885 4.31038 4.70441 5.05858 5.31041 5.07358C5.91581 5.05918 5.73581 4.30918 5.76041 3.91978H16.2802C16.6504 3.92038 16.9498 4.21978 16.9504 4.58998V6.13198C16.9528 6.37678 16.8196 6.60238 16.6042 6.71878C15.3448 7.39318 14.8708 8.96098 15.5458 10.2204Z" fill="#28B34B"/>
</svg>
