<svg width="21" height="21" viewBox="0 0 21 21" fill="none" xmlns="http://www.w3.org/2000/svg">
<path d="M18.18 1.7747H16.3307V0.809855C16.3307 0.454632 16.0428 0.166626 15.6875 0.166626C15.3322 0.166626 15.0443 0.454632 15.0443 0.809855V1.7747H6.03906V0.809855C6.03906 0.454632 5.7511 0.166626 5.39583 0.166626C5.04057 0.166626 4.7526 0.454632 4.7526 0.809855V1.7747H2.90332C1.44026 1.7747 0.25 2.96495 0.25 4.42802V18.0966C0.25 19.5597 1.44026 20.75 2.90332 20.75H18.18C19.6431 20.75 20.8333 19.5597 20.8333 18.0966V4.42802C20.8333 2.96495 19.6431 1.7747 18.18 1.7747ZM2.90332 3.06116H4.7526V3.70439C4.7526 4.05961 5.04057 4.34762 5.39583 4.34762C5.7511 4.34762 6.03906 4.05961 6.03906 3.70439V3.06116H15.0443V3.70439C15.0443 4.05961 15.3322 4.34762 15.6875 4.34762C16.0428 4.34762 16.3307 4.05961 16.3307 3.70439V3.06116H18.18C18.9337 3.06116 19.5469 3.67432 19.5469 4.42802V5.95569H1.53646V4.42802C1.53646 3.67432 2.14962 3.06116 2.90332 3.06116ZM18.18 19.4635H2.90332C2.14962 19.4635 1.53646 18.8503 1.53646 18.0966V7.24215H19.5469V18.0966C19.5469 18.8503 18.9337 19.4635 18.18 19.4635Z" fill="#28B34B" stroke="#28B34B" stroke-width="0.2"/>
</svg>
