<svg width="76" height="76" viewBox="0 0 76 76" fill="none" xmlns="http://www.w3.org/2000/svg">
<path d="M73.625 33.455L71.435 31.265C70.535 30.365 69.9925 28.345 70.3225 27.115L71.1225 24.1225C71.5675 22.47 71.3375 20.7375 70.475 19.25C69.615 17.76 68.2325 16.6975 66.58 16.255L63.585 15.4525C62.355 15.1225 60.8775 13.645 60.545 12.415L59.745 9.4225C58.85 6.075 55.235 3.9675 51.875 4.8775L48.885 5.6775C47.7325 5.9825 45.5925 5.4225 44.735 4.5675L42.5425 2.3725C40.125 -0.04 35.88 -0.0425 33.4575 2.375L31.265 4.5675C30.4075 5.43 28.26 5.9875 27.115 5.68L24.1225 4.8775C20.76 3.9825 17.1475 6.08 16.25 9.4225L15.4525 12.4125C15.1225 13.645 13.6425 15.125 12.4125 15.4525L9.4225 16.2525C7.7675 16.6975 6.3825 17.7625 5.5225 19.2525C4.6625 20.7425 4.435 22.47 4.88 24.1175L5.68 27.1125C6.01 28.345 5.4725 30.3625 4.5675 31.2625L2.38 33.4525C1.1675 34.6675 0.5 36.28 0.5 38C0.5 39.72 1.165 41.3325 2.375 42.5425L4.5625 44.73C5.4625 45.6325 6.005 47.655 5.6775 48.885L4.8775 51.8775C4.435 53.53 4.665 55.2625 5.525 56.75C6.385 58.24 7.77 59.3025 9.4225 59.7425L12.41 60.5425C13.645 60.875 15.1225 62.355 15.455 63.5825L16.255 66.575C17.15 69.915 20.7625 72.0125 24.125 71.1175L27.115 70.3175C28.27 70.01 30.4075 70.57 31.2675 71.4275L33.4575 73.6175C34.6675 74.8325 36.2825 75.5 38.0025 75.5C39.7225 75.5 41.335 74.8325 42.545 73.6225L44.74 71.4325C45.5975 70.57 47.7075 70.005 48.8925 70.3225L51.8775 71.12C52.4175 71.265 52.975 71.34 53.5325 71.34H53.535C56.44 71.34 58.9975 69.3825 59.7475 66.575L60.545 63.59C60.8775 62.3575 62.3575 60.8775 63.5875 60.5475L66.58 59.7475C70.0025 58.825 72.04 55.2925 71.1175 51.88L70.32 48.8875C69.99 47.655 70.53 45.635 71.43 44.735L73.6225 42.545C76.13 40.0325 76.1275 35.9575 73.625 33.455ZM54.7675 29.7675L34.7675 49.7675C34.28 50.255 33.64 50.5 33 50.5C32.36 50.5 31.72 50.255 31.2325 49.7675L21.2325 39.7675C20.255 38.79 20.255 37.21 21.2325 36.2325C22.21 35.255 23.79 35.255 24.7675 36.2325L33 44.465L51.2325 26.2325C52.21 25.255 53.79 25.255 54.7675 26.2325C55.745 27.21 55.745 28.79 54.7675 29.7675Z" fill="#28B34B"/>
</svg>
