<svg width="80" height="80" viewBox="0 0 80 80" fill="none" xmlns="http://www.w3.org/2000/svg">
<rect x="0.25" y="0.25" width="79.5" height="79.5" rx="39.75" fill="white" stroke="#28B34B" stroke-width="0.5"/>
<path d="M40.0013 41.25C34.718 41.25 30.418 36.95 30.418 31.6667C30.418 26.3834 34.718 22.0834 40.0013 22.0834C45.2846 22.0834 49.5846 26.3834 49.5846 31.6667C49.5846 36.95 45.2846 41.25 40.0013 41.25ZM40.0013 24.5834C36.1013 24.5834 32.918 27.7667 32.918 31.6667C32.918 35.5667 36.1013 38.75 40.0013 38.75C43.9013 38.75 47.0846 35.5667 47.0846 31.6667C47.0846 27.7667 43.9013 24.5834 40.0013 24.5834Z" fill="#28B34B" stroke="#28B34B" stroke-width="0.1"/>
<path d="M54.3168 57.9167C53.6335 57.9167 53.0668 57.35 53.0668 56.6667C53.0668 50.9167 47.2003 46.25 40.0003 46.25C32.8002 46.25 26.9336 50.9167 26.9336 56.6667C26.9336 57.35 26.3669 57.9167 25.6836 57.9167C25.0003 57.9167 24.4336 57.35 24.4336 56.6667C24.4336 49.55 31.4169 43.75 40.0003 43.75C48.5837 43.75 55.5668 49.55 55.5668 56.6667C55.5668 57.35 55.0002 57.9167 54.3168 57.9167Z" fill="#28B34B" stroke="#28B34B" stroke-width="0.1"/>
</svg>
