<svg width="80" height="80" viewBox="0 0 80 80" fill="none" xmlns="http://www.w3.org/2000/svg">
<path fill-rule="evenodd" clip-rule="evenodd" d="M75.6614 32.7766L77.9974 35.1146C80.6666 37.7862 80.6693 42.1364 77.9947 44.8187L75.6561 47.1566C74.6961 48.1174 74.1202 50.2739 74.4721 51.5897L75.3228 54.7843C76.3067 58.4274 74.1335 62.1985 70.4829 63.1833L67.2911 64.0374C65.9791 64.3896 64.4005 65.9696 64.0458 67.2854L63.1952 70.4721C62.3952 73.4692 59.6673 75.559 56.5688 75.559H56.5661C55.9714 75.559 55.3768 75.4789 54.8008 75.3241L51.6169 74.4727C50.353 74.1338 48.1024 74.7369 47.1877 75.6577L44.8465 77.9957C43.5559 79.2874 41.8359 80 40.0013 80C38.1667 80 36.4441 79.2874 35.1535 77.9903L32.8176 75.6524C31.9003 74.7369 29.6203 74.1391 28.3884 74.4674L25.1991 75.3214C21.6126 76.2769 17.7594 74.0377 16.8048 70.4721L15.9515 67.2774C15.5968 65.967 14.0209 64.387 12.7036 64.032L9.51701 63.178C7.7544 62.7083 6.27712 61.574 5.35982 59.9833C4.44252 58.3953 4.19719 56.5458 4.66918 54.7817L5.52248 51.587C5.8718 50.2739 5.29315 48.1148 4.33319 47.1513L1.99993 44.816C0.709309 43.5243 0 41.8028 0 39.9666C0 38.1304 0.711976 36.409 2.00527 35.1119L4.33852 32.774C5.30382 31.8132 5.87713 29.6594 5.52515 28.3436L4.67184 25.1463C4.19719 23.3875 4.43985 21.5433 5.35715 19.9526C6.27445 18.362 7.75174 17.225 9.51701 16.75L12.7062 15.8959C14.0182 15.5463 15.5968 13.9663 15.9488 12.6505L16.7994 9.45855C17.7567 5.89024 21.6099 3.65104 25.1965 4.60651L28.3884 5.46322C29.6097 5.79149 31.9003 5.19633 32.8149 4.27556L35.1535 1.93495C37.7374 -0.645872 42.2652 -0.643203 44.8438 1.93228L47.1824 4.27556C48.097 5.18832 50.3796 5.78616 51.6089 5.46055L54.7981 4.60651C58.382 3.63503 62.2379 5.8849 63.1925 9.45855L64.0458 12.6532C64.4005 13.9663 65.9764 15.5436 67.2884 15.8959L70.4829 16.7526C72.2456 17.225 73.7202 18.3593 74.6375 19.95C75.5574 21.5379 75.8028 23.3875 75.3281 25.1516L74.4748 28.3463C74.1228 29.6594 74.7015 31.8158 75.6614 32.7766Z" fill="#28B34B"/>
<path d="M41.2158 39.2941H37.5987C33.9795 39.3299 30.5209 40.778 27.9745 43.3236C25.4281 45.8692 23.9998 49.3066 24 52.8886C24.006 55.038 24.8715 57.0977 26.4072 58.6176C27.9429 60.1375 30.024 60.994 32.1958 61H46.6186C48.7923 61 50.8769 60.1454 52.414 58.6242C53.951 57.1031 54.8145 55.0399 54.8145 52.8886C54.8146 49.3066 53.3863 45.8692 50.84 43.3236C48.2936 40.778 44.835 39.3299 41.2158 39.2941Z" fill="#F9BE3D"/>
<path d="M39.8131 20C37.4876 20 35.2143 20.6837 33.2806 21.9645C31.347 23.2454 29.84 25.066 28.95 27.196C28.0601 29.326 27.8272 31.6698 28.2809 33.931C28.7346 36.1922 29.8545 38.2693 31.4989 39.8995C33.1433 41.5297 35.2384 42.64 37.5192 43.0897C39.8001 43.5395 42.1643 43.3087 44.3128 42.4264C46.4613 41.5441 48.2977 40.05 49.5897 38.1331C50.8817 36.2161 51.5713 33.9624 51.5713 31.6569C51.5713 28.5653 50.3325 25.6003 48.1274 23.4142C45.9223 21.2281 42.9316 20 39.8131 20Z" fill="#FFDE55"/>
<path d="M53.9473 60.8883C58.3947 60.8883 62 57.314 62 52.9049C62 48.4958 58.3947 44.9216 53.9473 44.9216C49.4998 44.9216 45.8945 48.4958 45.8945 52.9049C45.8945 57.314 49.4998 60.8883 53.9473 60.8883Z" fill="#F44336"/>
<path d="M50.8647 56.2918C50.7987 56.2918 50.7342 56.2724 50.6793 56.2361C50.6244 56.1998 50.5817 56.1481 50.5564 56.0877C50.5311 56.0272 50.5245 55.9607 50.5374 55.8965C50.5503 55.8324 50.5821 55.7734 50.6287 55.7272L56.794 49.6149C56.8566 49.5529 56.9415 49.518 57.03 49.518C57.1185 49.518 57.2033 49.5529 57.2659 49.6149C57.3285 49.677 57.3636 49.7611 57.3636 49.8488C57.3636 49.9366 57.3285 50.0207 57.2659 50.0827L51.1006 56.195C51.0697 56.2257 51.0329 56.2501 50.9924 56.2667C50.9519 56.2834 50.9085 56.2919 50.8647 56.2918Z" fill="white"/>
<path d="M57.0299 56.2918C56.9861 56.2919 56.9427 56.2834 56.9022 56.2667C56.8617 56.2501 56.825 56.2257 56.794 56.195L50.6287 50.0827C50.5662 50.0207 50.531 49.9366 50.531 49.8488C50.531 49.7611 50.5662 49.677 50.6287 49.6149C50.6913 49.5529 50.7762 49.518 50.8647 49.518C50.9532 49.518 51.038 49.5529 51.1006 49.6149L57.2659 55.7272C57.3126 55.7734 57.3443 55.8324 57.3572 55.8965C57.3701 55.9607 57.3635 56.0272 57.3382 56.0877C57.313 56.1481 57.2702 56.1998 57.2153 56.2361C57.1605 56.2724 57.0959 56.2918 57.0299 56.2918Z" fill="white"/>
</svg>
