<svg width="20" height="20" viewBox="0 0 20 20" fill="none" xmlns="http://www.w3.org/2000/svg">
<g clip-path="url(#clip0_1008_3099)">
<path d="M2.51486 16H2.61634L7.51237 14.9358C7.60773 14.92 7.69611 14.8758 7.76603 14.8091L16.0613 6.5237C16.6673 5.91975 17.0054 5.09829 16.9999 4.24332C17.0011 3.38171 16.6641 2.554 16.0613 1.93759C15.4567 1.33233 14.6342 0.994642 13.7782 1.00012C12.9167 0.992508 12.0904 1.34097 11.4951 1.96295L3.22513 10.2483C3.1522 10.307 3.09903 10.3866 3.07291 10.4764L2.0075 15.3666C1.97841 15.5421 2.03493 15.721 2.15972 15.848C2.25339 15.9435 2.38104 15.9981 2.51486 16ZM13.7782 2.01363C14.9971 2.01354 15.9853 3.00042 15.9854 4.21786C15.9854 4.22635 15.9853 4.23484 15.9852 4.24332C15.9935 4.82331 15.7644 5.38157 15.351 5.78891L12.2308 2.64702C12.6419 2.239 13.1986 2.01106 13.7782 2.01363ZM11.5205 3.38186L14.6407 6.49838L7.41084 13.6943L4.29059 10.6031L11.5205 3.38186ZM3.88472 11.6166L6.39612 14.125L3.17439 14.8345L3.88472 11.6166Z" fill="#F9BE3D" stroke="#F9BE3D" stroke-width="0.2"/>
<path d="M18.493 18H1.50704C1.227 18 1 18.2238 1 18.5C1 18.7762 1.227 19 1.50704 19H18.493C18.773 19 19 18.7762 19 18.5C19 18.2238 18.773 18 18.493 18Z" fill="#F9BE3D" stroke="#F9BE3D" stroke-width="0.2"/>
</g>
<defs>
<clipPath id="clip0_1008_3099">
<rect width="20" height="20" fill="white"/>
</clipPath>
</defs>
</svg>
