<svg width="21" height="19" viewBox="0 0 21 19" fill="none" xmlns="http://www.w3.org/2000/svg">
<path d="M10.3402 6.50455L13.3463 9.51068L13.3606 9.35322C13.3606 7.77379 12.0771 6.49023 10.4976 6.49023L10.3402 6.50455Z" fill="#ADBAB4"/>
<path d="M10.4976 4.58161C13.1316 4.58161 15.2693 6.71932 15.2693 9.35327C15.2693 9.96881 15.1453 10.5557 14.9305 11.0949L17.7219 13.8863C19.163 12.6839 20.2986 11.1283 21.0001 9.35327C19.3443 5.16378 15.2741 2.1958 10.4977 2.1958C9.16161 2.1958 7.88284 2.43437 6.6947 2.86382L8.75605 4.92038C9.29519 4.71044 9.8821 4.58161 10.4976 4.58161Z" fill="#ADBAB4"/>
<path d="M0.954314 1.98093L3.13018 4.1568L3.56442 4.59103C1.98978 5.82212 0.744376 7.4588 0 9.35312C1.651 13.5426 5.72597 16.5106 10.4976 16.5106C11.9769 16.5106 13.3892 16.2243 14.6824 15.7042L15.088 16.1098L17.8699 18.8964L19.0866 17.6844L2.17108 0.76416L0.954314 1.98093ZM6.23178 7.25361L7.70622 8.72805C7.66327 8.93324 7.63464 9.13839 7.63464 9.35312C7.63464 10.9325 8.9182 12.2161 10.4976 12.2161C10.7124 12.2161 10.9175 12.1875 11.118 12.1445L12.5924 13.619C11.9578 13.9339 11.2516 14.1248 10.4976 14.1248C7.86368 14.1248 5.72597 11.9871 5.72597 9.35312C5.72597 8.59921 5.91685 7.89299 6.23178 7.25361Z" fill="#ADBAB4"/>
</svg>
