<svg width="32" height="33" viewBox="0 0 32 33" fill="none" xmlns="http://www.w3.org/2000/svg">
<path d="M12.9397 17.9831C12.8392 17.9831 10.7314 17.9837 9.75924 17.9828C9.25876 17.9825 9.0802 17.8026 9.0802 17.2989C9.07956 16.0052 9.07924 14.7114 9.0802 13.4177C9.08052 12.9204 9.26932 12.7306 9.7634 12.7303C10.7356 12.7297 12.8319 12.73 12.9397 12.73C12.9397 12.6413 12.9394 10.7735 12.9397 9.91334C12.9404 8.64166 13.1672 7.42438 13.8133 6.30982C14.4748 5.16902 15.4373 4.38758 16.6709 3.93574C17.461 3.64614 18.2812 3.53062 19.1196 3.52998C20.1685 3.52934 21.2175 3.5303 22.2668 3.53222C22.7176 3.53286 22.9176 3.73222 22.9186 4.1863C22.9205 5.40326 22.9205 6.62022 22.9186 7.83686C22.918 8.29574 22.7263 8.48006 22.2652 8.48518C21.4053 8.49446 20.5448 8.4887 19.686 8.52326C18.8184 8.52326 18.3621 8.94694 18.3621 9.84486C18.3413 10.7946 18.3535 11.7453 18.3535 12.7297C18.4348 12.7297 20.9036 12.7293 22.0575 12.7297C22.5816 12.7297 22.7608 12.9098 22.7608 13.4369C22.7608 14.7236 22.7605 16.0106 22.7596 17.2973C22.7592 17.8167 22.5909 17.9825 22.0636 17.9828C20.9096 17.9834 18.4504 17.9831 18.3429 17.9831V28.3975C18.3429 28.9527 18.1682 29.1297 17.6204 29.1297C16.2847 29.1297 14.9487 29.13 13.613 29.1297C13.1288 29.1297 12.94 28.9415 12.94 28.4573C12.9397 25.0657 12.9397 18.1021 12.9397 17.9831Z" fill="#1877F2"/>
</svg>
