<svg width="22" height="22" viewBox="0 0 22 22" fill="none" xmlns="http://www.w3.org/2000/svg">
<path d="M15.628 0H6.37173C5.48586 0 4.77075 0.718315 4.77075 1.60258V20.399C4.77075 21.2825 5.48586 22 6.37173 22H15.628C16.5123 22 17.229 21.2825 17.229 20.399V1.60258C17.229 0.718315 16.5123 0 15.628 0ZM8.71587 0.973253H13.2855C13.401 0.973253 13.4948 1.14562 13.4948 1.35887C13.4948 1.57212 13.401 1.74528 13.2855 1.74528H8.71587C8.59963 1.74528 8.50743 1.57212 8.50743 1.35887C8.50743 1.14562 8.59963 0.973253 8.71587 0.973253ZM11.0007 20.4183C10.4371 20.4183 9.97854 19.9597 9.97854 19.3953C9.97854 18.8309 10.4371 18.374 11.0007 18.374C11.5627 18.374 12.0212 18.8309 12.0212 19.3953C12.0212 19.9597 11.5627 20.4183 11.0007 20.4183ZM16.0297 16.9157H5.97088V2.7041H16.0297V16.9157Z" fill="#6FC34D"/>
</svg>
