<svg width="20" height="20" viewBox="0 0 20 20" fill="none" xmlns="http://www.w3.org/2000/svg">
<rect x="2.625" y="5.89917" width="13.0967" height="9.82256" fill="white"/>
<path d="M16.5411 5.08061H15.919C15.7284 5.08291 15.5411 5.03105 15.3788 4.93106C15.2165 4.83108 15.0859 4.68708 15.0022 4.51581L14.2655 3.05061C14.0801 2.67549 13.793 2.35998 13.437 2.14001C13.081 1.92005 12.6704 1.80446 12.2519 1.80642H7.73355C7.31508 1.80446 6.90447 1.92005 6.54847 2.14001C6.19247 2.35998 5.90539 2.67549 5.71992 3.05061L4.98323 4.51581C4.89956 4.68708 4.76898 4.83108 4.60669 4.93106C4.4444 5.03105 4.25706 5.08291 4.06646 5.08061H3.44436C2.84736 5.08061 2.27481 5.31776 1.85266 5.73991C1.43052 6.16205 1.19336 6.73461 1.19336 7.33161V15.5171C1.19336 16.1141 1.43052 16.6866 1.85266 17.1088C2.27481 17.5309 2.84736 17.7681 3.44436 17.7681H16.5411C17.1381 17.7681 17.7107 17.5309 18.1328 17.1088C18.555 16.6866 18.7921 16.1141 18.7921 15.5171V7.33161C18.7921 6.73461 18.555 6.16205 18.1328 5.73991C17.7107 5.31776 17.1381 5.08061 16.5411 5.08061ZM9.99273 14.9032C9.14279 14.9032 8.31194 14.6511 7.60524 14.1789C6.89855 13.7067 6.34774 13.0356 6.02248 12.2503C5.69723 11.4651 5.61212 10.601 5.77794 9.76742C5.94375 8.93381 6.35304 8.16809 6.95404 7.5671C7.55503 6.9661 8.32075 6.55681 9.15436 6.391C9.98797 6.22518 10.852 6.31029 11.6373 6.63554C12.4225 6.9608 13.0937 7.51161 13.5659 8.2183C14.0381 8.925 14.2901 9.75585 14.2901 10.6058C14.2879 11.7449 13.8345 12.8367 13.029 13.6421C12.2236 14.4475 11.1318 14.901 9.99273 14.9032Z" fill="#28BA4D"/>
<path d="M9.99338 13.6754C11.6886 13.6754 13.0629 12.3011 13.0629 10.6058C13.0629 8.91054 11.6886 7.53625 9.99338 7.53625C8.29811 7.53625 6.92383 8.91054 6.92383 10.6058C6.92383 12.3011 8.29811 13.6754 9.99338 13.6754Z" fill="#28BA4D"/>
</svg>
