<svg width="20" height="20" viewBox="0 0 20 20" fill="none" xmlns="http://www.w3.org/2000/svg">
<g clip-path="url(#clip0_234_39246)">
<path d="M4.54416 6.65332H0.247314V19.5568H4.54416V6.65332Z" fill="white"/>
<path d="M18.6458 7.83152C17.7432 6.84625 16.5494 6.35352 15.0652 6.35352C14.5183 6.35352 14.0212 6.42078 13.5741 6.55541C13.1271 6.68995 12.7496 6.87872 12.4413 7.1218C12.1332 7.36488 11.8879 7.59054 11.7057 7.79878C11.5325 7.99657 11.3631 8.22698 11.1978 8.48762V6.65278H6.91382L6.92695 7.27786C6.93575 7.69466 6.94009 8.9793 6.94009 11.132C6.94009 13.2848 6.93142 16.0929 6.914 19.5564H11.1978V12.3558C11.1978 11.9132 11.2453 11.5617 11.341 11.3011C11.5234 10.8581 11.7988 10.4873 12.1679 10.188C12.537 9.88823 12.9947 9.73851 13.5418 9.73851C14.2881 9.73851 14.8373 9.99673 15.1889 10.5132C15.5404 11.0297 15.7162 11.7437 15.7162 12.6552V19.556H20V12.1607C19.9997 10.2595 19.5487 8.81648 18.6458 7.83152Z" fill="white"/>
<path d="M2.42183 0.442383C1.70143 0.442383 1.11772 0.653038 0.670549 1.07394C0.223425 1.49493 0 2.02643 0 2.66893C0 3.30244 0.216995 3.83212 0.65103 4.25735C1.08493 4.68263 1.65793 4.89538 2.3697 4.89538H2.39574C3.12499 4.89538 3.71317 4.68281 4.16016 4.25735C4.60715 3.83212 4.82629 3.30263 4.81767 2.66893C4.809 2.02647 4.58749 1.49493 4.15359 1.07394C3.71974 0.652856 3.14227 0.442383 2.42183 0.442383Z" fill="white"/>
</g>
<defs>
<clipPath id="clip0_234_39246">
<rect width="20" height="20" fill="white"/>
</clipPath>
</defs>
</svg>
