<svg width="20" height="20" viewBox="0 0 20 20" fill="none" xmlns="http://www.w3.org/2000/svg">
<g clip-path="url(#clip0_1407_7013)">
<path d="M9.99462 6.58982C8.11764 6.58982 6.5907 8.11692 6.5907 9.9939C6.5907 11.8707 8.11779 13.3978 9.99462 13.3978C11.8716 13.3978 13.3987 11.8707 13.3987 9.9939C13.3987 8.11692 11.8716 6.58982 9.99462 6.58982ZM9.99462 12.2263C8.7637 12.2263 7.76227 11.2248 7.76227 9.9939C7.76227 8.76297 8.7637 7.76154 9.99462 7.76154C11.2255 7.76154 12.2271 8.76297 12.2271 9.9939C12.2271 11.2248 11.2255 12.2263 9.99462 12.2263Z" fill="#28B34B"/>
<path d="M19.4142 9.40812H17.2636C16.9798 5.85313 14.1354 3.00874 10.5804 2.72493V0.585807C10.5804 0.262321 10.3181 2.28882e-05 9.99464 2.28882e-05C9.67115 2.28882e-05 9.40886 0.262321 9.40886 0.585807V2.72493C5.85387 3.00874 3.00964 5.85313 2.72567 9.40812H0.585784C0.262298 9.40812 0 9.67026 0 9.9939C0 10.3174 0.262298 10.5797 0.585784 10.5797H2.72567C3.00964 14.1345 5.85402 16.9789 9.40886 17.2629V19.4018C9.40886 19.7253 9.67115 19.9876 9.99464 19.9876C10.3183 19.9876 10.5806 19.7253 10.5806 19.4018V17.2629C14.1354 16.9789 16.9798 14.1347 17.2636 10.5797H19.4142C19.7377 10.5797 20 10.3174 20 9.9939C20 9.67026 19.7377 9.40812 19.4142 9.40812ZM9.99464 16.1148C6.61955 16.1148 3.87374 13.369 3.87374 9.9939C3.87374 6.61881 6.61971 3.873 9.99464 3.873C13.3697 3.873 16.1157 6.61881 16.1157 9.9939C16.1157 13.369 13.3699 16.1148 9.99464 16.1148Z" fill="#28B34B"/>
</g>
<defs>
<clipPath id="clip0_1407_7013">
<rect width="20" height="20" fill="white"/>
</clipPath>
</defs>
</svg>
