<svg width="16" height="22" viewBox="0 0 16 22" fill="none" xmlns="http://www.w3.org/2000/svg">
<path d="M7.86908 1.69232C6.0745 1.69478 4.35411 2.43104 3.08514 3.73965C1.81618 5.04827 1.10223 6.82242 1.09985 8.67308C1.09985 13.6847 7.40652 19.9616 7.67447 20.2262C7.72659 20.2785 7.7964 20.3077 7.86908 20.3077C7.94176 20.3077 8.01158 20.2785 8.0637 20.2262C8.33165 19.9616 14.6383 13.6847 14.6383 8.67308C14.6359 6.82242 13.922 5.04827 12.653 3.73965C11.3841 2.43104 9.66367 1.69478 7.86908 1.69232ZM7.86908 11.8726C7.25546 11.8726 6.65561 11.685 6.14539 11.3334C5.63518 10.9818 5.23751 10.4821 5.00269 9.89749C4.76786 9.31285 4.70642 8.66953 4.82614 8.04889C4.94585 7.42824 5.24134 6.85814 5.67524 6.41068C6.10914 5.96322 6.66197 5.6585 7.2638 5.53505C7.86564 5.41159 8.48947 5.47495 9.05638 5.71712C9.6233 5.95928 10.1079 6.36937 10.4488 6.89553C10.7897 7.42169 10.9716 8.04028 10.9716 8.67308C10.9712 9.52149 10.6441 10.335 10.0624 10.9349C9.48065 11.5348 8.69178 11.8721 7.86908 11.8726Z" stroke="#28B34B" stroke-width="1.4"/>
</svg>
