<svg width="15" height="16" viewBox="0 0 15 16" fill="none" xmlns="http://www.w3.org/2000/svg">
<path d="M10.085 15.2644C10.085 15.4179 10.0241 15.565 9.91556 15.6735C9.80705 15.782 9.65989 15.843 9.50644 15.843H4.36354C3.39208 15.8418 2.46075 15.4553 1.77383 14.7684C1.0869 14.0814 0.700444 13.1501 0.699219 12.1787V4.46431C0.700444 3.49285 1.0869 2.56152 1.77383 1.87459C2.46075 1.18767 3.39208 0.801213 4.36354 0.799988H9.50644C9.65989 0.799988 9.80705 0.860945 9.91556 0.969449C10.0241 1.07795 10.085 1.22512 10.085 1.37856C10.085 1.53201 10.0241 1.67918 9.91556 1.78768C9.80705 1.89618 9.65989 1.95714 9.50644 1.95714H4.36354C3.69885 1.95796 3.06161 2.22237 2.59161 2.69238C2.1216 3.16238 1.85719 3.79962 1.85637 4.46431V12.1787C1.85719 12.8434 2.1216 13.4806 2.59161 13.9506C3.06161 14.4206 3.69885 14.685 4.36354 14.6858H9.50644C9.65989 14.6858 9.80705 14.7468 9.91556 14.8553C10.0241 14.9638 10.085 15.111 10.085 15.2644ZM14.0296 7.91262L10.9439 4.82688C10.8905 4.77165 10.8266 4.7276 10.756 4.69731C10.6854 4.66702 10.6095 4.6511 10.5327 4.65047C10.4558 4.64984 10.3797 4.66451 10.3086 4.69364C10.2375 4.72276 10.1729 4.76575 10.1186 4.8201C10.0643 4.87445 10.0214 4.93907 9.99232 5.01019C9.96326 5.08131 9.94866 5.1575 9.94936 5.23432C9.95006 5.31115 9.96606 5.38706 9.99642 5.45763C10.0268 5.52821 10.0709 5.59203 10.1262 5.64538L12.2237 7.74291H5.90641C5.75296 7.74291 5.6058 7.80387 5.49729 7.91237C5.38879 8.02087 5.32783 8.16804 5.32783 8.32149C5.32783 8.47493 5.38879 8.6221 5.49729 8.7306C5.6058 8.8391 5.75296 8.90006 5.90641 8.90006H12.2237L10.1262 10.9984C10.0207 11.1074 9.96233 11.2536 9.96358 11.4053C9.96482 11.557 10.0256 11.7021 10.1328 11.8094C10.24 11.9168 10.3851 11.9777 10.5368 11.9791C10.6885 11.9805 10.8347 11.9222 10.9439 11.8169L14.0296 8.73112C14.0834 8.67739 14.126 8.61359 14.1551 8.54337C14.1842 8.47315 14.1992 8.39788 14.1992 8.32187C14.1992 8.24586 14.1842 8.17059 14.1551 8.10037C14.126 8.03015 14.0834 7.96636 14.0296 7.91262Z" fill="#28B34B" stroke="#28B34B" stroke-width="0.2"/>
</svg>
