<svg width="18" height="18" viewBox="0 0 18 18" fill="none" xmlns="http://www.w3.org/2000/svg">
<g clip-path="url(#clip0_3911_64609)">
<mask id="mask0_3911_64609" style="mask-type:luminance" maskUnits="userSpaceOnUse" x="0" y="0" width="18" height="18">
<path d="M0 1.90735e-06H18V18H0V1.90735e-06Z" fill="white"/>
</mask>
<g mask="url(#mask0_3911_64609)">
<path d="M8.99989 17.4725C13.6664 17.4725 17.4724 13.6665 17.4724 8.99995C17.4724 4.33345 13.6664 0.527399 8.99989 0.527399C4.33336 0.527399 0.527344 4.33345 0.527344 8.99995C0.527344 13.6665 4.33336 17.4725 8.99989 17.4725Z" stroke="#28B34B" stroke-miterlimit="22.926" stroke-linecap="round" stroke-linejoin="round"/>
<path d="M8.99996 15.3632C12.5047 15.3632 15.3632 12.5047 15.3632 8.99991C15.3632 5.49519 12.5047 2.6367 8.99996 2.6367C5.49524 2.6367 2.63672 5.49519 2.63672 8.99991C2.63672 12.5047 5.49524 15.3632 8.99996 15.3632Z" stroke="#28B34B" stroke-miterlimit="22.926" stroke-linecap="round" stroke-linejoin="round"/>
<path d="M8.99941 6.15237L10.6239 8.25222L12.5593 7.7216L11.5745 11.161H6.41381L5.43945 7.7216L7.37495 8.25222L8.99941 6.15237Z" stroke="#28B34B" stroke-miterlimit="22.926" stroke-linecap="round" stroke-linejoin="round"/>
</g>
</g>
<defs>
<clipPath id="clip0_3911_64609">
<rect width="18" height="18" fill="white"/>
</clipPath>
</defs>
</svg>
