<svg width="30" height="30" viewBox="0 0 30 30" fill="none" xmlns="http://www.w3.org/2000/svg">
<path d="M11.9278 20.2155L16.071 7.78587C16.2244 7.32538 15.9756 6.82762 15.5151 6.67411C15.0547 6.52065 14.5568 6.7695 14.4033 7.22999L10.2602 19.6597C10.1067 20.1201 10.3556 20.6179 10.816 20.7714C10.9082 20.8021 11.002 20.8167 11.0941 20.8167C11.462 20.8168 11.805 20.5839 11.9278 20.2155Z" fill="#28BA4D"/>
<path d="M18.1367 16.3596C19.5906 16.3596 20.7734 15.1767 20.7734 13.7228C20.7734 12.269 19.5906 11.0861 18.1367 11.0861C16.6828 11.0861 15.5 12.269 15.5 13.7228C15.5 15.1767 16.6828 16.3596 18.1367 16.3596ZM18.1367 12.8439C18.6213 12.8439 19.0156 13.2382 19.0156 13.7228C19.0156 14.2075 18.6213 14.6017 18.1367 14.6017C17.6521 14.6017 17.2578 14.2075 17.2578 13.7228C17.2578 13.2382 17.6521 12.8439 18.1367 12.8439Z" fill="#28BA4D"/>
<path d="M8.19336 11.0861C6.73947 11.0861 5.55664 12.269 5.55664 13.7228C5.55664 15.1767 6.73947 16.3596 8.19336 16.3596C9.64725 16.3596 10.8301 15.1767 10.8301 13.7228C10.8301 12.269 9.6473 11.0861 8.19336 11.0861ZM8.19336 14.6017C7.70873 14.6017 7.31445 14.2075 7.31445 13.7228C7.31445 13.2382 7.70873 12.8439 8.19336 12.8439C8.67799 12.8439 9.07227 13.2382 9.07227 13.7228C9.07227 14.2075 8.67805 14.6017 8.19336 14.6017Z" fill="#28BA4D"/>
<path d="M29.8242 10.8987L26.7593 6.81216L26.8789 5.97527C26.918 5.7014 26.826 5.42507 26.6303 5.22949L24.7659 3.36503L26.6303 1.50058C26.9735 1.1574 26.9735 0.600874 26.6303 0.257632C26.2871 -0.0855518 25.7306 -0.0855518 25.3873 0.257632L23.5229 2.12209L21.6585 0.257632C21.4629 0.0619873 21.1866 -0.0297705 20.9127 0.00901854L12.2119 1.25197C12.0237 1.27886 11.8492 1.36611 11.7148 1.50058L0.942407 12.2729C-0.314136 13.5294 -0.314136 15.574 0.942407 16.8305L10.0574 25.9455C10.2439 26.132 10.448 26.2901 10.664 26.4212V26.7776C10.664 28.5546 12.1097 30.0002 13.8867 30.0002H26.7773C28.5543 30.0002 30 28.5546 30 26.7776V11.426C30 11.2359 29.9383 11.0508 29.8242 10.8987ZM2.18536 15.5875C1.61418 15.0163 1.61418 14.087 2.18536 13.5159L12.7505 2.95072L20.7262 1.81136L22.2799 3.36509L21.037 4.60804L20.4155 3.98654C20.0723 3.64335 19.5157 3.64335 19.1725 3.98654C18.8293 4.32972 18.8293 4.88625 19.1725 5.22949L21.6585 7.71545C21.8301 7.88707 22.055 7.97291 22.2799 7.97291C22.5048 7.97291 22.7298 7.88707 22.9014 7.71545C23.2446 7.37226 23.2446 6.81574 22.9014 6.4725L22.2799 5.85099L23.5228 4.60804L25.0765 6.16177L23.9371 14.1374L13.372 24.7026C13.0953 24.9793 12.7275 25.1316 12.3362 25.1316C11.9449 25.1316 11.5771 24.9792 11.3004 24.7026L2.18536 15.5875ZM28.2422 26.7776C28.2422 27.5853 27.585 28.2424 26.7773 28.2424H13.8867C13.1154 28.2424 12.4819 27.6431 12.4263 26.8857C13.2212 26.8637 14.0096 26.5509 14.6149 25.9455L25.3873 15.1732C25.5217 15.0387 25.609 14.8643 25.6359 14.676L26.4077 9.2731L28.2422 11.719V26.7776Z" fill="#28BA4D"/>
</svg>
