<svg width="18" height="18" viewBox="0 0 18 18" fill="none" xmlns="http://www.w3.org/2000/svg">
<g opacity="0.9">
<path d="M15.2425 14.394L14.5005 5.04413C14.4542 4.44176 13.9448 3.96987 13.3407 3.96987H11.875V3.904C11.875 2.13303 10.4343 0.692261 8.66329 0.692261C6.89233 0.692261 5.45156 2.13303 5.45156 3.904V3.96987H3.98597C3.38181 3.96987 2.87234 4.44172 2.82626 5.04286L2.08402 14.3953C2.02658 15.1441 2.28636 15.8897 2.7967 16.4406C3.30704 16.9916 4.03049 17.3076 4.78152 17.3076H12.545C13.296 17.3076 14.0195 16.9916 14.5299 16.4406C15.0402 15.8896 15.3 15.1441 15.2425 14.394ZM6.42479 3.904C6.42479 2.66969 7.42902 1.66549 8.66329 1.66549C9.89757 1.66549 10.9018 2.66972 10.9018 3.904V3.96987H6.42479V3.904ZM13.8158 15.7793C13.4843 16.1373 13.033 16.3344 12.545 16.3344H4.78156C4.29361 16.3344 3.84233 16.1373 3.51074 15.7793C3.17918 15.4213 3.01711 14.9562 3.05437 14.471L3.79654 5.11854C3.80407 5.02015 3.88728 4.94311 3.98597 4.94311H5.45156V6.14172C5.45156 6.41045 5.66944 6.62833 5.93818 6.62833C6.20691 6.62833 6.42479 6.41045 6.42479 6.14172V4.94311H10.9018V6.14172C10.9018 6.41045 11.1197 6.62833 11.3884 6.62833C11.6571 6.62833 11.875 6.41045 11.875 6.14172V4.94311H13.3407C13.4393 4.94311 13.5225 5.02018 13.5302 5.11984L14.2722 14.4697C14.3095 14.9562 14.1474 15.4213 13.8158 15.7793Z" fill="#28B34B"/>
</g>
</svg>
