<svg width="18" height="18" viewBox="0 0 18 18" fill="none" xmlns="http://www.w3.org/2000/svg">
<path d="M15.7885 12.7463L14.8266 11.3625C14.6953 11.1744 14.6247 10.9506 14.6241 10.7212V6.75C14.6241 5.25816 14.0315 3.82742 12.9766 2.77252C11.9217 1.71763 10.491 1.125 8.99914 1.125C7.5073 1.125 6.07656 1.71763 5.02167 2.77252C3.96678 3.82742 3.37414 5.25816 3.37414 6.75V10.7212C3.3736 10.9506 3.30294 11.1744 3.17164 11.3625L2.20977 12.7463C2.06413 12.9076 1.96835 13.1077 1.93403 13.3224C1.89971 13.537 1.92831 13.757 2.01638 13.9558C2.10444 14.1545 2.2482 14.3235 2.43026 14.4422C2.61232 14.561 2.82489 14.6245 3.04227 14.625H6.24289C6.372 15.2608 6.71693 15.8324 7.21925 16.243C7.72157 16.6535 8.35038 16.8778 8.99914 16.8778C9.64791 16.8778 10.2767 16.6535 10.779 16.243C11.2814 15.8324 11.6263 15.2608 11.7554 14.625H14.956C15.1734 14.6245 15.386 14.561 15.568 14.4422C15.7501 14.3235 15.8938 14.1545 15.9819 13.9558C16.07 13.757 16.0986 13.537 16.0643 13.3224C16.0299 13.1077 15.9342 12.9076 15.7885 12.7463ZM8.99914 15.75C8.65099 15.749 8.31166 15.6404 8.02767 15.439C7.74368 15.2376 7.52895 14.9532 7.41289 14.625H10.5854C10.4693 14.9532 10.2546 15.2376 9.97062 15.439C9.68663 15.6404 9.3473 15.749 8.99914 15.75ZM3.04227 13.5C3.06769 13.4764 3.09034 13.45 3.10977 13.4213L4.09414 12.0037C4.35674 11.6275 4.49806 11.18 4.49914 10.7212V6.75C4.49914 5.55653 4.97325 4.41193 5.81716 3.56802C6.66108 2.72411 7.80567 2.25 8.99914 2.25C10.1926 2.25 11.3372 2.72411 12.1811 3.56802C13.025 4.41193 13.4991 5.55653 13.4991 6.75V10.7212C13.5002 11.18 13.6415 11.6275 13.9041 12.0037L14.8885 13.4213C14.9079 13.45 14.9306 13.4764 14.956 13.5H3.04227Z" fill="#28B34B"/>
</svg>
