<svg width="36" height="12" viewBox="0 0 36 12" fill="none" xmlns="http://www.w3.org/2000/svg">
<path d="M28.1803 2.45174C28.3292 2.33261 28.4037 2.27304 28.4781 2.21348C29.5131 1.3349 30.8384 1.43169 31.7244 2.47407C31.8138 2.57831 31.8584 2.58576 31.9478 2.49641C32.0073 2.4294 32.0744 2.37728 32.1339 2.31027C32.8264 1.63273 33.7422 1.4317 34.5984 1.81142C35.4993 2.21348 35.9833 2.92081 35.9907 3.91107C36.0056 6.04794 35.9982 8.17737 35.9982 10.3142C35.9982 11.0737 35.5291 11.5502 34.7771 11.5502C34.4793 11.5502 34.1814 11.5279 33.8836 11.5577C33.5784 11.5874 33.489 11.4906 33.489 11.1705C33.5039 9.08573 33.4965 7.00097 33.4965 4.91622C33.4965 4.82687 33.4965 4.74497 33.4965 4.65562C33.489 4.17166 33.2954 3.97063 32.8338 3.94829C32.4168 3.92596 32.1265 4.17911 32.0818 4.6035C32.0744 4.7003 32.0818 4.80453 32.0818 4.90133C32.0818 6.70315 32.0818 8.49753 32.0818 10.2994C32.0818 11.0886 31.6276 11.5502 30.8384 11.5428C30.4363 11.5353 29.8928 11.7215 29.662 11.4609C29.461 11.2375 29.595 10.7089 29.595 10.3142C29.595 8.46775 29.595 6.61381 29.595 4.76731C29.595 4.1121 29.1706 3.77705 28.6196 4.00041C28.2771 4.14188 28.1654 4.41737 28.1654 4.77475C28.1729 6.50212 28.1654 8.22205 28.1654 9.94942C28.1654 10.0834 28.1654 10.2249 28.1654 10.3589C28.1431 11.0811 27.6815 11.5353 26.9667 11.5428C26.6689 11.5502 26.3711 11.5204 26.0732 11.5502C25.7531 11.58 25.6563 11.4906 25.6637 11.1482C25.6786 8.22205 25.6712 5.29594 25.6712 2.36239C25.6712 2.23582 25.6786 2.11669 25.6712 1.99011C25.6563 1.82631 25.7233 1.77419 25.8871 1.77419C26.5721 1.78164 27.2496 1.78164 27.9346 1.77419C28.1059 1.77419 28.1878 1.81886 28.1729 2.005C28.158 2.13902 28.1729 2.25815 28.1803 2.45174Z" fill="white"/>
<path d="M12.3956 6.48609C12.3956 7.50613 12.3956 8.51873 12.3956 9.53877C12.3882 10.8641 11.6958 11.5491 10.3705 11.5565C9.7897 11.5565 9.2015 11.564 8.62075 11.5565C7.44435 11.5416 6.58067 10.7598 6.5211 9.58344C6.47643 8.74209 6.46898 7.8933 6.51366 7.05195C6.57322 5.84577 7.49647 4.99698 8.71754 4.98208C9.0377 4.97464 9.36531 4.98208 9.68546 4.98208C9.99818 4.97464 10.1173 4.79595 10.1099 4.49812C10.1099 4.2003 9.97584 4.06628 9.67802 4.08117C9.34297 4.08862 9.00792 4.08862 8.67287 4.08117C7.85386 4.06628 7.39968 3.61955 7.40712 2.81543C7.40712 2.48782 7.25821 2.04853 7.47413 1.85495C7.66027 1.69115 8.08467 1.79538 8.40483 1.79538C9.23873 1.78794 10.0652 1.79538 10.8991 1.79538C11.7851 1.79538 12.3882 2.39847 12.3956 3.29194C12.4031 4.34921 12.3956 5.42137 12.3956 6.48609ZM10.1173 8.17623C10.1173 8.04966 10.1173 7.93053 10.1173 7.80395C10.1173 7.0445 10.1173 7.04451 9.35786 7.07429C8.97814 7.08918 8.76966 7.28276 8.76222 7.67738C8.75477 7.99009 8.75477 8.29536 8.76222 8.60807C8.76966 9.14415 9.00792 9.28562 9.78226 9.30796C10.3556 9.32285 10.0652 8.92079 10.1173 8.69742C10.1471 8.53362 10.1099 8.34748 10.1173 8.17623Z" fill="white"/>
<path d="M19.0224 5.67537C19.0224 6.81454 19.0373 7.96116 19.0149 9.10033C19 9.9789 18.7916 10.7756 17.9428 11.2446C17.6003 11.4308 17.228 11.535 16.8408 11.5425C15.9846 11.5574 15.1283 11.5425 14.2721 11.5574C14.0636 11.5574 14.0189 11.4829 14.0264 11.2968C14.0413 10.9841 14.0189 10.6788 14.0338 10.3661C14.0487 9.77043 14.5029 9.31625 15.0986 9.29391C15.4857 9.27902 15.8654 9.28646 16.2526 9.29391C16.5653 9.29391 16.7366 9.16734 16.7366 8.83229C16.7366 8.48979 16.5728 8.37066 16.2601 8.36321C15.7389 8.34832 15.2177 8.42278 14.7039 8.27387C13.8179 8.01327 13.1702 7.27616 13.1478 6.36036C13.1031 4.90847 13.1329 3.45659 13.1255 2.00471C13.1255 1.8409 13.1776 1.78879 13.3414 1.79623C13.9519 1.80368 14.555 1.81112 15.1656 1.79623C15.4336 1.78879 15.3964 1.9377 15.3964 2.1015C15.3964 3.196 15.3964 4.28305 15.3964 5.37755C15.3964 5.85406 15.6197 6.10721 16.0367 6.1221C16.5281 6.13699 16.744 5.93596 16.744 5.43711C16.744 4.33517 16.7515 3.22578 16.7366 2.12384C16.7366 1.86324 16.8036 1.78879 17.0642 1.79623C17.6077 1.81857 18.1587 1.82601 18.7022 1.79623C19 1.78134 19.0447 1.89302 19.0373 2.15362C19.0149 3.32257 19.0224 4.49897 19.0224 5.67537Z" fill="white"/>
<path d="M0.0509687 7.36487C0.0509687 6.15124 0.0509687 4.93017 0.0509687 3.71654C0.0509687 2.52525 0.780634 1.7807 1.97937 1.79559C2.76115 1.80304 3.54294 1.70624 4.31728 1.85515C5.30754 2.04874 5.93296 2.81563 5.94041 3.83567C5.94785 4.91528 5.94041 5.99489 5.94041 7.07449C5.94041 8.42958 5.14373 9.25604 3.78864 9.29327C3.37913 9.30816 2.96963 9.30071 2.56012 9.29327C2.37398 9.28582 2.29208 9.34539 2.29953 9.54642C2.31442 9.84424 2.30697 10.1421 2.29953 10.4399C2.28464 11.0802 1.83046 11.5418 1.19759 11.5493C0.825307 11.5567 0.356237 11.7056 0.117979 11.4897C-0.105388 11.2887 0.0584143 10.8122 0.0509687 10.4548C0.0435231 9.42729 0.0509687 8.39236 0.0509687 7.36487ZM2.29953 5.54071C2.29953 5.77896 2.29953 6.00978 2.29953 6.24803C2.29953 7.08938 2.29953 7.08938 3.14088 7.01493C3.50571 6.98515 3.67696 6.80645 3.6844 6.44162C3.69185 6.02467 3.66951 5.60027 3.69185 5.18332C3.73652 3.97714 3.51315 4.09627 2.53034 4.08882C2.35165 4.08882 2.29208 4.14094 2.29208 4.31963C2.30697 4.72169 2.29953 5.1312 2.29953 5.54071Z" fill="white"/>
<path d="M21.1293 7.38031C21.1293 6.39006 21.1219 5.39235 21.1368 4.40209C21.1368 4.17128 21.0846 4.07448 20.8315 4.08193C20.4964 4.09682 20.0497 4.19361 19.8636 4.02981C19.6328 3.81389 19.8114 3.35227 19.7817 2.99488C19.7817 2.97254 19.7817 2.94276 19.7817 2.92042C19.7817 2.57048 19.67 2.16098 19.8189 1.90038C19.9678 1.63979 20.422 1.80359 20.7421 1.72169C21.375 1.55789 21.8515 1.19305 22.2387 0.686754C22.5067 0.344258 22.8418 0.0985545 23.2736 0.0166534C23.5044 -0.02802 23.6459 0.00176245 23.631 0.299585C23.6087 0.716536 23.631 1.14093 23.6236 1.56533C23.6161 1.74402 23.6831 1.80359 23.8618 1.79614C24.1597 1.7887 24.4575 1.80359 24.7553 1.7887C24.934 1.78125 24.9936 1.84826 24.9861 2.02696C24.9787 2.63749 24.9787 3.24058 24.9861 3.85112C24.9861 4.02237 24.9414 4.11171 24.7553 4.08938C24.7181 4.08193 24.6808 4.08938 24.6436 4.08938C24.316 4.11916 23.8618 3.94046 23.6906 4.16383C23.5268 4.37231 23.631 4.80415 23.631 5.1392C23.631 7.16439 23.6236 9.18214 23.6385 11.2073C23.6385 11.4903 23.564 11.5796 23.2811 11.5573C23.013 11.5349 22.7375 11.5573 22.4621 11.5498C21.6579 11.52 21.1293 10.9765 21.1293 10.1724C21.1293 9.2417 21.1293 8.31101 21.1293 7.38031Z" fill="white"/>
</svg>
