<svg width="22" height="22" viewBox="0 0 22 22" fill="none" xmlns="http://www.w3.org/2000/svg">
<g clip-path="url(#clip0_234_58992)">
<path d="M21.1362 7.21875C21.6905 6.66445 21.9999 5.92539 21.9999 5.13906C21.9999 4.35273 21.6948 3.61367 21.1362 3.05937L18.9448 0.867969C18.3862 0.305078 17.6471 0 16.8608 0C16.0745 0 15.3354 0.305078 14.7811 0.863672L1.11276 14.532C0.347918 15.2969 -0.0559883 16.3496 0.00416793 17.4281L-0.000128948 20.9258C-0.000128948 21.2094 0.11159 21.4844 0.313543 21.6863C0.515496 21.8883 0.786199 22 1.07409 22L4.57175 21.9957C5.65026 22.0559 6.703 21.652 7.46784 20.8871C7.88893 20.466 7.88893 19.7871 7.46784 19.366C7.04675 18.9449 6.36784 18.9449 5.94675 19.366C5.61159 19.7012 5.14323 19.8773 4.67057 19.8473C4.64909 19.8473 4.62331 19.843 4.60182 19.843L2.14831 19.8516L2.15261 17.398C2.15261 17.3766 2.15261 17.3508 2.14831 17.3293C2.11823 16.8566 2.2944 16.3883 2.62956 16.0531L14.0206 4.66211L17.3378 7.9793L8.77839 16.5387C8.35729 16.9598 8.35729 17.6387 8.77839 18.0598C9.19948 18.4809 9.87839 18.4809 10.2995 18.0598L21.1362 7.21875ZM15.5417 3.14102L16.3022 2.38047C16.4526 2.23008 16.6503 2.14844 16.8651 2.14844C17.0757 2.14844 17.2776 2.23008 17.428 2.38047L19.6194 4.57187C19.9288 4.88125 19.9288 5.38828 19.6194 5.69766L18.8589 6.4582L15.5417 3.14102Z" fill="#2B2B2C"/>
<path d="M20.9258 19.8516H11.2363C10.6434 19.8516 10.1621 20.3328 10.1621 20.9258C10.1621 21.5187 10.6434 22 11.2363 22H20.9258C21.5188 22 22 21.5187 22 20.9258C22 20.3328 21.5188 19.8516 20.9258 19.8516Z" fill="#2B2B2C"/>
</g>
<defs>
<clipPath id="clip0_234_58992">
<rect width="22" height="22" fill="white"/>
</clipPath>
</defs>
</svg>
