<svg width="50" height="14" viewBox="0 0 50 14" fill="none" xmlns="http://www.w3.org/2000/svg">
<g clip-path="url(#clip0_1012_3350)">
<path d="M34.3349 10.6693V8.20384C34.3349 7.59703 34.1073 7.29362 33.5385 7.29362C33.3109 7.29362 33.0455 7.33162 32.8937 7.36942V10.9727C32.8937 11.0865 32.7799 11.2003 32.6661 11.2003H31.7937C31.6799 11.2003 31.5661 11.0865 31.5661 10.9727V6.76261C31.5661 6.61081 31.6799 6.4972 31.7937 6.4592C32.3627 6.2696 32.9315 6.1558 33.5383 6.1558C34.9038 6.1558 35.6624 6.87641 35.6624 8.20404V11.0107C35.6624 11.1245 35.5486 11.2383 35.4348 11.2383H34.9038C34.5626 11.2381 34.3349 10.9727 34.3349 10.6693ZM37.7486 9.19006L37.7106 9.53147C37.7106 9.98667 38.014 10.2521 38.507 10.2521C38.8862 10.2521 39.2276 10.1383 39.6071 9.94867C39.6451 9.94867 39.6829 9.91067 39.7209 9.91067C39.7967 9.91067 39.8347 9.94867 39.8727 9.98647C39.9107 10.0245 39.9865 10.1383 39.9865 10.1383C40.0623 10.2521 40.1383 10.4037 40.1383 10.5175C40.1383 10.7071 40.0245 10.8967 39.8729 10.9727C39.4557 11.2003 38.9626 11.3141 38.4316 11.3141C37.8248 11.3141 37.3316 11.1623 36.9524 10.8589C36.5732 10.5175 36.3456 10.0625 36.3456 9.49346V8.01424C36.3456 6.83841 37.1042 6.1178 38.3938 6.1178C39.6455 6.1178 40.3661 6.80061 40.3661 8.01424V8.92445C40.3661 9.03826 40.2523 9.15206 40.1385 9.15206H37.749L37.7486 9.19006ZM37.7106 8.35564H39.1518V7.97643C39.1518 7.52122 38.8864 7.21782 38.4312 7.21782C37.976 7.21782 37.7106 7.48322 37.7106 7.97643V8.35564ZM47.3826 9.19006L47.3446 9.53147C47.3446 9.98667 47.648 10.2521 48.141 10.2521C48.5202 10.2521 48.8616 10.1383 49.241 9.94867C49.279 9.94867 49.3168 9.91067 49.3549 9.91067C49.4307 9.91067 49.4687 9.94867 49.5067 9.98647C49.5447 10.0245 49.6205 10.1383 49.6205 10.1383C49.6963 10.2521 49.7723 10.4037 49.7723 10.5175C49.7723 10.7071 49.6585 10.8967 49.5069 10.9727C49.0896 11.2003 48.5966 11.3141 48.0656 11.3141C47.4588 11.3141 46.9656 11.1623 46.5864 10.8589C46.2072 10.5175 45.9796 10.0625 45.9796 9.49346V8.01424C45.9796 6.83841 46.7382 6.1178 48.0278 6.1178C49.2794 6.1178 50.0001 6.80061 50.0001 8.01424V8.92445C50.0001 9.03826 49.8863 9.15206 49.7725 9.15206H47.383V9.19006H47.3826ZM47.3446 8.35564H48.7858V7.97643C48.7858 7.52122 48.5204 7.21782 48.0652 7.21782C47.61 7.21782 47.3446 7.48322 47.3446 7.97643V8.35564ZM25.0424 11.2381H25.5734C25.6872 11.2381 25.801 11.1243 25.801 11.0105V8.20384C25.801 6.91421 25.1182 6.1556 23.9803 6.1556C23.6389 6.1556 23.2597 6.2314 23.0321 6.3074V4.90397C23.0321 4.60057 22.7667 4.33496 22.4631 4.33496H21.9321C21.8183 4.33496 21.7045 4.44876 21.7045 4.56257V11.0105C21.7045 11.1243 21.8183 11.2381 21.9321 11.2381H22.8045C22.9183 11.2381 23.0321 11.1243 23.0321 11.0105V7.44522C23.2217 7.36942 23.4873 7.33142 23.6769 7.33142C24.2459 7.33142 24.4734 7.59683 24.4734 8.24164V10.7071C24.5114 10.9727 24.739 11.2381 25.0424 11.2381ZM30.7697 8.05204V9.45546C30.7697 10.6313 29.9733 11.3519 28.6456 11.3519C27.356 11.3519 26.5216 10.6313 26.5216 9.45546V8.05204C26.5216 6.87621 27.318 6.1556 28.6456 6.1556C29.9733 6.1556 30.7697 6.87641 30.7697 8.05204ZM29.4423 8.05204C29.4423 7.59683 29.1768 7.29342 28.6836 7.29342C28.1904 7.29342 27.925 7.55883 27.925 8.05204V9.45546C27.925 9.91067 28.1904 10.1761 28.6836 10.1761C29.1768 10.1761 29.4423 9.91067 29.4423 9.45546V8.05204ZM20.9841 7.40742C20.9841 8.62125 20.0739 9.45566 18.86 9.45566C18.5566 9.45566 18.291 9.41766 18.0256 9.30386V11.0107C18.0256 11.1245 17.9118 11.2383 17.798 11.2383H16.9256C16.8118 11.2383 16.698 11.1245 16.698 11.0107V4.97997C16.698 4.82817 16.8118 4.71457 16.9256 4.67657C17.4946 4.48696 18.0634 4.37316 18.6702 4.37316C20.0357 4.37316 20.9839 5.20758 20.9839 6.4972C20.9841 6.497 20.9841 7.40742 20.9841 7.40742ZM19.6187 6.4212C19.6187 5.81439 19.2014 5.51098 18.6324 5.51098C18.291 5.51098 18.0634 5.62479 18.0634 5.62479V8.12804C18.291 8.24184 18.4048 8.27984 18.6702 8.27984C19.2392 8.27984 19.6565 7.93843 19.6565 7.36962V6.4214H19.6187V6.4212ZM45.4862 7.40742C45.4862 8.62125 44.576 9.45566 43.3621 9.45566C43.0587 9.45566 42.7931 9.41766 42.5277 9.30386V11.0107C42.5277 11.1245 42.4139 11.2383 42.3001 11.2383H41.4277C41.3139 11.2383 41.2001 11.1245 41.2001 11.0107V4.97997C41.2001 4.82817 41.3139 4.71457 41.4277 4.67657C41.9967 4.48696 42.5655 4.37316 43.1723 4.37316C44.5378 4.37316 45.486 5.20758 45.486 6.4972C45.4862 6.497 45.4862 7.40742 45.4862 7.40742ZM44.1207 6.4212C44.1207 5.81439 43.7035 5.51098 43.1345 5.51098C42.7931 5.51098 42.5655 5.62479 42.5655 5.62479V8.12804C42.7931 8.24184 42.9069 8.27984 43.1723 8.27984C43.7413 8.27984 44.1585 7.93843 44.1585 7.36962V6.4214H44.1207V6.4212Z" fill="white"/>
<path d="M6.78934 13.5796C10.539 13.5796 13.5787 10.54 13.5787 6.79031C13.5787 3.04067 10.539 0.000976562 6.78934 0.000976562C3.03969 0.000976562 0 3.04067 0 6.79031C0 10.54 3.03969 13.5796 6.78934 13.5796Z" fill="white"/>
<path d="M9.87078 5.01837C9.87078 4.75296 9.64318 4.52536 9.37777 4.52536H8.46755L6.38151 2.13591C6.19191 1.90831 5.8885 1.8325 5.58509 1.90831L4.86448 2.13591C4.75068 2.17391 4.71268 2.32551 4.78868 2.40132L7.06432 4.56336H3.61246C3.49865 4.56336 3.42285 4.63916 3.42285 4.75296V5.13217C3.42285 5.39758 3.65046 5.62518 3.91586 5.62518H4.44687V7.44582C4.44687 8.81124 5.16749 9.60786 6.38131 9.60786C6.76052 9.60786 7.06412 9.56986 7.44333 9.41825V10.6321C7.44333 10.9735 7.70874 11.2389 8.05014 11.2389H8.58115C8.69496 11.2389 8.80876 11.1251 8.80876 11.0113V5.58738H9.68118C9.79498 5.58738 9.87078 5.51158 9.87078 5.39778V5.01837ZM7.44333 8.28023C7.21573 8.39403 6.91232 8.43204 6.68472 8.43204C6.0779 8.43204 5.7745 8.12863 5.7745 7.44582V5.62518H7.44333V8.28023Z" fill="#020F09"/>
</g>
<defs>
<clipPath id="clip0_1012_3350">
<rect width="50" height="13.58" fill="white"/>
</clipPath>
</defs>
</svg>
