<svg width="16" height="17" viewBox="0 0 16 17" fill="none" xmlns="http://www.w3.org/2000/svg">
<path d="M8.00195 9.46253C5.62445 9.46253 3.68945 7.52752 3.68945 5.15002C3.68945 2.77252 5.62445 0.837524 8.00195 0.837524C10.3795 0.837524 12.3145 2.77252 12.3145 5.15002C12.3145 7.52752 10.3795 9.46253 8.00195 9.46253ZM8.00195 1.96252C6.24695 1.96252 4.81445 3.39502 4.81445 5.15002C4.81445 6.90503 6.24695 8.33752 8.00195 8.33752C9.75695 8.33752 11.1895 6.90503 11.1895 5.15002C11.1895 3.39502 9.75695 1.96252 8.00195 1.96252Z" fill="#28B34B" stroke="#28B34B" stroke-width="0.3"/>
<path d="M14.4435 16.9625C14.136 16.9625 13.881 16.7075 13.881 16.4C13.881 13.8125 11.2411 11.7125 8.00112 11.7125C4.76109 11.7125 2.12109 13.8125 2.12109 16.4C2.12109 16.7075 1.86609 16.9625 1.55859 16.9625C1.25109 16.9625 0.996094 16.7075 0.996094 16.4C0.996094 13.1975 4.13859 10.5875 8.00112 10.5875C11.8636 10.5875 15.006 13.1975 15.006 16.4C15.006 16.7075 14.751 16.9625 14.4435 16.9625Z" fill="#28B34B" stroke="#28B34B" stroke-width="0.3"/>
</svg>
