<svg width="18" height="18" viewBox="0 0 18 18" fill="none" xmlns="http://www.w3.org/2000/svg">
<path d="M8.55006 9.21108C6.2591 9.21108 4.39453 7.34651 4.39453 5.05555C4.39453 2.76459 6.2591 0.900024 8.55006 0.900024C10.841 0.900024 12.7056 2.76459 12.7056 5.05555C12.7056 7.34651 10.841 9.21108 8.55006 9.21108ZM8.55006 1.98408C6.85894 1.98408 5.47858 3.36443 5.47858 5.05555C5.47858 6.74667 6.85894 8.12703 8.55006 8.12703C10.2412 8.12703 11.6215 6.74667 11.6215 5.05555C11.6215 3.36443 10.2412 1.98408 8.55006 1.98408Z" fill="#28B34B" stroke="#28B34B" stroke-width="0.1"/>
<path d="M14.7588 16.4381C14.4624 16.4381 14.2167 16.1924 14.2167 15.8961C14.2167 13.4028 11.6729 11.3792 8.55083 11.3792C5.42873 11.3792 2.88483 13.4028 2.88483 15.8961C2.88483 16.1924 2.63911 16.4381 2.34281 16.4381C2.0465 16.4381 1.80078 16.1924 1.80078 15.8961C1.80078 12.8102 4.82889 10.2952 8.55083 10.2952C12.2727 10.2952 15.3008 12.8102 15.3008 15.8961C15.3008 16.1924 15.0551 16.4381 14.7588 16.4381Z" fill="#28B34B" stroke="#28B34B" stroke-width="0.1"/>
</svg>
