<svg width="30" height="30" viewBox="0 0 30 30" fill="none" xmlns="http://www.w3.org/2000/svg">
<path d="M8.87032 27.5086C8.50619 27.5071 8.14672 27.4267 7.81669 27.2729C7.48666 27.119 7.19392 26.8954 6.95865 26.6175C6.72338 26.3396 6.55118 26.014 6.45393 25.6631C6.35667 25.3122 6.33668 24.9444 6.39532 24.585L7.36213 18.628L3.21294 14.3433C2.8912 14.0121 2.66675 13.5987 2.56415 13.1485C2.46155 12.6982 2.48476 12.2285 2.63123 11.7905C2.7777 11.3526 3.04179 10.9634 3.39462 10.6655C3.74744 10.3675 4.17541 10.1724 4.63169 10.1014L10.2512 9.23887L12.7274 3.949C12.9348 3.52274 13.2579 3.16341 13.6599 2.91203C14.0618 2.66064 14.5263 2.52734 15.0003 2.52734C15.4744 2.52734 15.9389 2.66064 16.3408 2.91203C16.7427 3.16341 17.0658 3.52274 17.2733 3.949L19.7413 9.23131L25.3688 10.1014C25.8251 10.1724 26.2531 10.3675 26.6059 10.6655C26.9587 10.9634 27.2228 11.3526 27.3693 11.7905C27.5158 12.2285 27.539 12.6982 27.4364 13.1485C27.3338 13.5987 27.1093 14.0121 26.7876 14.3433L22.6426 18.6109L23.6058 24.5859C23.6824 25.0514 23.6264 25.5291 23.444 25.9642C23.2617 26.3993 22.9605 26.7742 22.5749 27.0461C22.1893 27.3179 21.7349 27.4756 21.2638 27.5011C20.7927 27.5266 20.324 27.4189 19.9113 27.1902L15.0035 24.4652L10.0896 27.1902C9.71691 27.3985 9.29722 27.5081 8.87032 27.5086ZM15.0001 21.9626C15.4257 21.9629 15.8442 22.072 16.2159 22.2794L21.1243 25.0052L20.1698 19.0286C20.1079 18.6408 20.137 18.2439 20.2548 17.8693C20.3726 17.4946 20.5758 17.1525 20.8484 16.8698L24.9938 12.6014L19.3694 11.7097C18.9611 11.6471 18.5746 11.4845 18.2442 11.2365C17.9138 10.9885 17.6498 10.6627 17.4757 10.2881L15.0086 5.00737H15.008C15.0065 5.00295 15.0042 4.99883 15.0013 4.99518L12.5233 10.2894C12.3493 10.6637 12.0856 10.9892 11.7555 11.237C11.4255 11.4848 11.0393 11.6472 10.6313 11.7097L5.01119 12.5722L9.15119 16.8691C9.42397 17.1516 9.62734 17.4938 9.74523 17.8684C9.86312 18.2431 9.89232 18.64 9.8305 19.0279L8.86313 24.9861L13.7838 22.2799C14.1555 22.0722 14.5742 21.963 15.0001 21.9626Z" fill="#6FC34D"/>
</svg>
