<svg width="20" height="20" viewBox="0 0 20 20" fill="none" xmlns="http://www.w3.org/2000/svg">
<path d="M19.0891 18.0775L14.0682 12.89C15.1699 11.5292 15.8332 9.80002 15.8332 7.91672C15.8332 3.55176 12.2815 0.000114441 7.91656 0.000114441C3.55161 0.000114441 0 3.55172 0 7.91668C0 12.2816 3.55165 15.8333 7.9166 15.8333C9.7999 15.8333 11.5291 15.17 12.8899 14.0683L17.9108 19.2558C18.0733 19.4183 18.2866 19.5 18.5 19.5C18.7134 19.5 18.9267 19.4183 19.0892 19.2558C19.415 18.93 19.415 18.4033 19.0891 18.0775ZM7.9166 14.1666C4.46996 14.1666 1.66666 11.3633 1.66666 7.91668C1.66666 4.47003 4.46996 1.66674 7.9166 1.66674C11.3632 1.66674 14.1665 4.47003 14.1665 7.91668C14.1665 11.3633 11.3632 14.1666 7.9166 14.1666Z" fill="#686868"/>
</svg>
