<svg width="24" height="25" viewBox="0 0 24 25" fill="none" xmlns="http://www.w3.org/2000/svg">
<g clip-path="url(#clip0_1008_3233)">
<path d="M5.31891 14.8337L4.4835 17.9524L1.43011 18.017C0.517594 16.3245 0 14.388 0 12.3302C0 10.3403 0.483938 8.46382 1.34175 6.81152H1.34241L4.06078 7.3099L5.25159 10.012C5.00236 10.7386 4.86652 11.5186 4.86652 12.3302C4.86661 13.2111 5.02617 14.0551 5.31891 14.8337Z" fill="#FBBB00"/>
<path d="M23.7902 10.0884C23.928 10.8143 23.9999 11.564 23.9999 12.3301C23.9999 13.1893 23.9095 14.0273 23.7375 14.8356C23.1533 17.5864 21.6269 19.9884 19.5124 21.6882L19.5118 21.6875L16.0878 21.5128L15.6032 18.4877C17.0063 17.6649 18.1028 16.3772 18.6804 14.8356H12.2637V10.0884H18.774H23.7902Z" fill="#518EF8"/>
<path d="M19.5119 21.6873L19.5126 21.688C17.4561 23.3409 14.8438 24.3299 12.0001 24.3299C7.43018 24.3299 3.457 21.7757 1.43018 18.0168L5.31897 14.8335C6.33236 17.5381 8.94138 19.4634 12.0001 19.4634C13.3148 19.4634 14.5465 19.108 15.6033 18.4875L19.5119 21.6873Z" fill="#28B446"/>
<path d="M19.6596 3.0927L15.7721 6.27533C14.6783 5.59161 13.3853 5.19664 12 5.19664C8.87213 5.19664 6.21431 7.21025 5.25169 10.0118L1.34245 6.81139H1.3418C3.33895 2.96084 7.36224 0.330078 12 0.330078C14.9117 0.330078 17.5814 1.36723 19.6596 3.0927Z" fill="#F14336"/>
</g>
<defs>
<clipPath id="clip0_1008_3233">
<rect width="24" height="24" fill="white" transform="translate(0 0.330078)"/>
</clipPath>
</defs>
</svg>
