<svg width="18" height="18" viewBox="0 0 18 18" fill="none" xmlns="http://www.w3.org/2000/svg">
<g clip-path="url(#clip0_1959_11111)">
<path d="M7.87613 1.18759C7.54001 1.35654 7.40854 1.61702 7.33032 1.79529C7.25209 1.97358 7.21619 2.07911 7.11649 2.19392C7.01672 2.30874 6.8318 2.45717 6.42225 2.62283C6.01271 2.78849 5.77991 2.80796 5.62843 2.79478C5.47689 2.78155 5.36617 2.72594 5.18612 2.65213C4.96681 2.56225 4.70325 2.49916 4.3796 2.60035C4.05595 2.70154 3.7741 2.91759 3.39439 3.2911C3.01468 3.66461 2.78923 3.948 2.68259 4.27007C2.55977 4.64081 2.66369 4.91522 2.73436 5.09663C2.80502 5.27804 2.84678 5.37865 2.85736 5.53043C2.86681 5.67249 2.84414 5.90513 2.67181 6.31204C2.49931 6.71895 2.3547 6.89028 2.23827 6.98814C2.10374 7.10128 2.02134 7.12395 1.84186 7.19918C1.59309 7.30343 1.36844 7.44186 1.2111 7.7424C1.05371 8.04294 1.00473 8.3967 1.0002 8.92948C0.996417 9.46225 1.04687 9.84093 1.18962 10.1253C1.36401 10.4727 1.63147 10.5942 1.80963 10.6725C1.98781 10.7508 2.08058 10.7856 2.19533 10.8855C2.31002 10.9853 2.46329 11.1713 2.62885 11.5811C2.79437 11.9909 2.81099 12.2317 2.79777 12.3832C2.78454 12.5348 2.73976 12.6124 2.66588 12.7926C2.56744 13.0331 2.50414 13.3012 2.60542 13.625C2.70651 13.9489 2.92637 14.2319 3.29965 14.6118C3.67292 14.9918 3.96004 15.2164 4.28191 15.3231C4.60378 15.4298 4.88698 15.3597 5.1021 15.2694C5.28349 15.1986 5.38491 15.1568 5.5366 15.1463C5.67057 15.137 5.91011 15.1593 6.31676 15.3319C6.72342 15.5045 6.91983 15.6769 6.99928 15.7716C7.09716 15.8881 7.12909 15.9838 7.20433 16.1633C7.31052 16.417 7.44588 16.637 7.74623 16.7945C8.04658 16.9519 8.40012 17 8.99995 17C9.59976 17 9.95331 16.9519 10.2537 16.7945C10.554 16.637 10.6894 16.417 10.7956 16.1633C10.8708 15.9837 10.9029 15.8881 11.0006 15.7716C11.0802 15.6769 11.2765 15.5045 11.6831 15.3319C12.0898 15.1593 12.3292 15.1369 12.4633 15.1463C12.615 15.1568 12.7165 15.1986 12.8978 15.2694C13.1129 15.3597 13.3961 15.4298 13.718 15.3231C14.0398 15.2164 14.327 14.9918 14.7003 14.6118C15.0735 14.2319 15.2934 13.9489 15.3945 13.625C15.4956 13.3012 15.4325 13.0331 15.334 12.7926C15.2603 12.6124 15.2154 12.5348 15.2021 12.3832C15.1889 12.2317 15.2059 11.9909 15.3711 11.5811C15.5366 11.1713 15.6898 10.9853 15.8046 10.8855C15.9193 10.7856 16.0121 10.7508 16.1903 10.6725C16.3685 10.5942 16.6359 10.4727 16.8103 10.1253C16.9531 9.84093 17.0043 9.46225 16.9997 8.92948C16.9959 8.3967 16.9461 8.04294 16.7888 7.7424C16.6314 7.44186 16.4068 7.30343 16.1581 7.19918C15.9786 7.12395 15.8962 7.10128 15.7616 6.98814C15.6452 6.89028 15.5006 6.71895 15.3281 6.31204C15.1556 5.90513 15.1327 5.67248 15.1426 5.53043C15.1539 5.37865 15.1949 5.27804 15.2656 5.09663C15.3362 4.91523 15.4402 4.64081 15.3173 4.27007C15.2108 3.948 14.9852 3.66461 14.6055 3.2911C14.2258 2.91759 13.944 2.70153 13.6203 2.60035C13.2967 2.49916 13.0331 2.56225 12.8138 2.65213C12.6338 2.72593 12.523 2.78161 12.3715 2.79478C12.22 2.80802 11.9872 2.78854 11.5777 2.62283C11.1681 2.45717 10.9832 2.30873 10.8835 2.19392C10.7837 2.0791 10.7478 1.97358 10.6696 1.79529C10.5914 1.61703 10.4599 1.35653 10.1238 1.18759C9.83542 1.04265 9.49106 1 8.99996 1C8.50886 1 8.1645 1.04265 7.87613 1.18759ZM9.67567 2.08156C9.70571 2.09895 9.70817 2.08912 9.76447 2.21736C9.82078 2.34557 9.90542 2.58875 10.1277 2.84461C10.3783 3.13293 10.6881 3.34107 11.1998 3.54806C11.7274 3.76146 12.1179 3.82168 12.4555 3.79232C12.7931 3.76295 13.0417 3.6412 13.1712 3.58812C13.2573 3.55277 13.28 3.54229 13.3391 3.56077C13.3983 3.57929 13.5775 3.68273 13.9064 4.00629C14.2679 4.36181 14.3518 4.53269 14.3595 4.56221C14.379 4.62103 14.3765 4.62195 14.3351 4.74101C14.2843 4.87146 14.1664 5.11989 14.1428 5.45814C14.1191 5.79639 14.201 6.21655 14.4064 6.70091C14.622 7.20935 14.8568 7.53995 15.1163 7.75804C15.3757 7.97614 15.592 8.04691 15.7607 8.11759C15.8121 8.13916 15.8901 8.17115 15.9052 8.21236C15.9339 8.26725 15.9971 8.48362 16.001 8.94513C16.0048 9.40664 15.9468 9.61081 15.919 9.66617C15.899 9.71763 15.8276 9.74002 15.7871 9.76095C15.659 9.81723 15.3984 9.90972 15.1427 10.1322C14.887 10.3547 14.6514 10.6929 14.4446 11.205C14.2377 11.717 14.175 12.1168 14.2044 12.4546C14.2337 12.7924 14.3427 13.0158 14.3958 13.1453C14.4434 13.2615 14.4545 13.2853 14.4426 13.3232C14.4237 13.3823 14.3149 13.5812 13.9915 13.9103C13.6682 14.2395 13.4957 14.3393 13.4369 14.3588C13.3781 14.3783 13.3908 14.3837 13.2485 14.3334C13.1575 14.2934 12.8826 14.1713 12.5445 14.1477C12.2065 14.1241 11.8029 14.1939 11.2947 14.4096C10.7866 14.6253 10.4542 14.87 10.2363 15.1296C10.0183 15.3893 9.92712 15.6473 9.87306 15.7764C9.82998 15.8794 9.82015 15.8936 9.79408 15.9074C9.73928 15.9361 9.51712 15.9992 9.00025 15.9992C8.48337 15.9992 8.26126 15.9361 8.20643 15.9074C8.18016 15.8936 8.17034 15.8794 8.12726 15.7764C8.07322 15.6473 7.98196 15.3893 7.76403 15.1296C7.54608 14.87 7.21372 14.6253 6.7056 14.4096C6.19748 14.1939 5.79383 14.1241 5.45579 14.1477C5.11776 14.1713 4.84282 14.2934 4.75181 14.3334C4.60953 14.3837 4.62219 14.3783 4.56343 14.3588C4.50466 14.3393 4.33217 14.2395 4.00883 13.9103C3.68548 13.5812 3.57617 13.3823 3.55771 13.3231C3.54638 13.2853 3.55702 13.2615 3.60457 13.1453C3.65767 13.0158 3.7665 12.7924 3.79594 12.4546C3.82523 12.1168 3.76268 11.717 3.55575 11.205C3.34889 10.6929 3.11331 10.3547 2.85761 10.1322C2.6019 9.90971 2.34131 9.81723 2.21318 9.76094C2.17275 9.74003 2.10133 9.71762 2.0813 9.66616C2.05352 9.6108 1.99533 9.40663 1.99929 8.94512C2.00307 8.48361 2.06618 8.26724 2.0949 8.21236C2.11002 8.17116 2.18786 8.13917 2.23945 8.11758C2.40799 8.04691 2.62443 7.97612 2.88387 7.75804C3.14335 7.53994 3.37816 7.20934 3.59373 6.7009C3.79909 6.21655 3.88095 5.79638 3.85737 5.45813C3.83375 5.11989 3.71584 4.87146 3.66502 4.741C3.62269 4.62197 3.62118 4.62102 3.64064 4.5622C3.6482 4.53267 3.73228 4.3618 4.0937 4.00628C4.42262 3.68273 4.6019 3.57923 4.661 3.56076C4.72014 3.54224 4.74262 3.55282 4.82897 3.58811C4.9584 3.64119 5.20709 3.76294 5.54469 3.79231C5.88228 3.82167 6.2728 3.76146 6.80036 3.54806C7.31208 3.34106 7.62188 3.13293 7.87245 2.8446C8.09482 2.58874 8.17943 2.34557 8.23568 2.21736C8.29199 2.08915 8.29444 2.09891 8.32448 2.08155C8.38551 2.04637 8.59264 2.00046 9.00006 2.00047C9.40749 2.00047 9.61454 2.04637 9.67567 2.08156ZM8.99999 6.00722C7.35197 6.00827 6.00532 7.35693 6.00532 9.00569C6.00532 10.6545 7.35197 12.0002 8.99999 12.0003C10.648 12.0003 11.9946 10.6545 11.9946 9.00569C11.9946 7.35693 10.648 6.0083 8.99999 6.00722ZM8.99999 7.00769C10.108 7.00768 10.9987 7.89797 10.9987 9.00569C10.9987 10.1134 10.108 10.9998 8.99999 10.9998C7.89202 10.9998 7.00126 10.1134 7.00126 9.00569C7.00126 7.89797 7.89202 7.0077 8.99999 7.00769Z" fill="#28B34B" stroke="#28B34B" stroke-width="0.2"/>
</g>
<defs>
<clipPath id="clip0_1959_11111">
<rect width="18" height="18" fill="white"/>
</clipPath>
</defs>
</svg>
