<svg width="80" height="80" viewBox="0 0 80 80" fill="none" xmlns="http://www.w3.org/2000/svg">
<path fill-rule="evenodd" clip-rule="evenodd" d="M75.6614 32.7766L77.9974 35.1146C80.6666 37.7862 80.6693 42.1364 77.9947 44.8187L75.6561 47.1566C74.6961 48.1174 74.1202 50.2739 74.4721 51.5897L75.3228 54.7843C76.3067 58.4274 74.1335 62.1985 70.4829 63.1833L67.2911 64.0374C65.9791 64.3896 64.4005 65.9696 64.0458 67.2854L63.1952 70.4721C62.3952 73.4692 59.6673 75.559 56.5688 75.559H56.5661C55.9714 75.559 55.3768 75.4789 54.8008 75.3241L51.6169 74.4727C50.353 74.1338 48.1024 74.7369 47.1877 75.6577L44.8465 77.9957C43.5559 79.2874 41.8359 80 40.0013 80C38.1667 80 36.4441 79.2874 35.1535 77.9903L32.8176 75.6524C31.9003 74.7369 29.6203 74.1391 28.3884 74.4674L25.1991 75.3214C21.6126 76.2769 17.7594 74.0377 16.8048 70.4721L15.9515 67.2774C15.5968 65.967 14.0209 64.387 12.7036 64.032L9.51701 63.178C7.7544 62.7083 6.27712 61.574 5.35982 59.9833C4.44252 58.3953 4.19719 56.5458 4.66918 54.7817L5.52248 51.587C5.8718 50.2739 5.29315 48.1148 4.33319 47.1513L1.99993 44.816C0.709309 43.5243 0 41.8028 0 39.9666C0 38.1304 0.711976 36.409 2.00527 35.1119L4.33852 32.774C5.30382 31.8132 5.87713 29.6594 5.52515 28.3436L4.67184 25.1463C4.19719 23.3875 4.43985 21.5433 5.35715 19.9526C6.27445 18.362 7.75174 17.225 9.51701 16.75L12.7062 15.8959C14.0182 15.5463 15.5968 13.9663 15.9488 12.6505L16.7994 9.45855C17.7567 5.89024 21.6099 3.65104 25.1965 4.60651L28.3884 5.46322C29.6097 5.79149 31.9003 5.19633 32.8149 4.27556L35.1535 1.93495C37.7374 -0.645872 42.2652 -0.643203 44.8438 1.93228L47.1824 4.27556C48.097 5.18832 50.3796 5.78616 51.6089 5.46055L54.7981 4.60651C58.382 3.63503 62.2379 5.8849 63.1925 9.45855L64.0458 12.6532C64.4005 13.9663 65.9764 15.5436 67.2884 15.8959L70.4829 16.7526C72.2456 17.225 73.7202 18.3593 74.6375 19.95C75.5574 21.5379 75.8028 23.3875 75.3281 25.1516L74.4748 28.3463C74.1228 29.6594 74.7015 31.8158 75.6614 32.7766Z" fill="#28B34B"/>
<g clip-path="url(#clip0_2019_40673)">
<path d="M48.15 25.8H28.9834C26.45 25.8 24.4 27.85 24.4 30.3833V51.2167C24.4 53.75 26.45 55.8 28.9834 55.8H39.9667C39.0667 53.9 38.5667 51.7833 38.5667 49.55L38.5834 49.1333H30.65C29.9667 49.1333 29.4 48.5667 29.4 47.8833C29.4 47.2 29.9667 46.6333 30.65 46.6333H38.8667C39.0667 45.6167 39.3834 44.6333 39.7834 43.7167H30.65C29.9667 43.7167 29.4 43.15 29.4 42.4667C29.4 41.7833 29.9667 41.2167 30.65 41.2167H41.2C41.95 40.1333 42.8667 39.15 43.8834 38.3H30.65C29.9667 38.3 29.4 37.7333 29.4 37.05C29.4 36.3667 29.9667 35.8 30.65 35.8H46.4834C46.8334 35.8 47.1334 35.9333 47.3667 36.1667C49.0167 35.45 50.8334 35.0333 52.7334 34.9833V30.3833C52.7334 27.85 50.6834 25.8 48.15 25.8Z" fill="#0C3A5B"/>
<path d="M44.8167 24.1333H42.9833C42.4333 22.2167 40.6666 20.8 38.5667 20.8C36.4667 20.8 34.7 22.2167 34.15 24.1333H32.3167C31.6333 24.1333 31.0667 24.7 31.0667 25.3833V28.7167C31.0667 30.3167 32.3833 31.6333 33.9833 31.6333H43.15C44.75 31.6333 46.0667 30.3167 46.0667 28.7167V25.3833C46.0667 24.7 45.5 24.1333 44.8167 24.1333Z" fill="#092941"/>
<path d="M47.3667 36.1667C46.1 36.7167 44.9334 37.435 43.8834 38.3H30.65C29.9667 38.3 29.4 37.7333 29.4 37.05C29.4 36.3667 29.9667 35.8 30.65 35.8H46.4834C46.8334 35.8 47.1334 35.9333 47.3667 36.1667Z" fill="white"/>
<path d="M41.2 41.2167C40.65 42 40.1667 42.8333 39.7834 43.7167H30.65C29.9667 43.7167 29.4 43.15 29.4 42.4667C29.4 41.7833 29.9667 41.2167 30.65 41.2167H41.2Z" fill="white"/>
<path d="M38.8667 46.6333C38.7 47.45 38.6 48.2833 38.5834 49.1333H30.65C29.9667 49.1333 29.4 48.5666 29.4 47.8833C29.4 47.2 29.9667 46.6333 30.65 46.6333H38.8667Z" fill="white"/>
<path d="M31.0667 25.8H28.9834C26.45 25.8 24.4 27.85 24.4 30.3833V51.2167C24.4 53.75 26.45 55.8 28.9834 55.8H38.5667V49.55V49.1333H30.65C29.9667 49.1333 29.4 48.5667 29.4 47.8833C29.4 47.2 29.9667 46.6333 30.65 46.6333H38.5667V43.7167H30.65C29.9667 43.7167 29.4 43.15 29.4 42.4667C29.4 41.7833 29.9667 41.2167 30.65 41.2167H38.5667V38.3H30.65C29.9667 38.3 29.4 37.7333 29.4 37.05C29.4 36.3667 29.9667 35.8 30.65 35.8H38.5667V31.6333H33.9834C32.3834 31.6333 31.0667 30.3167 31.0667 28.7167V25.8Z" fill="#0C3452"/>
<path d="M38.5667 20.8C36.4667 20.8 34.7 22.2167 34.15 24.1333H32.3167C31.6333 24.1333 31.0667 24.7 31.0667 25.3833V25.8V28.7167C31.0667 30.3167 32.3833 31.6333 33.9833 31.6333H38.5667V20.8Z" fill="#092941"/>
<path d="M38.5667 35.8H30.65C29.9667 35.8 29.4 36.3667 29.4 37.05C29.4 37.7333 29.9667 38.3 30.65 38.3H38.5667V35.8Z" fill="#DEDEDE"/>
<path d="M38.5667 41.2167H30.65C29.9667 41.2167 29.4 41.7833 29.4 42.4667C29.4 43.15 29.9667 43.7167 30.65 43.7167H38.5667V41.2167Z" fill="#DEDEDE"/>
<path d="M38.5667 46.6333H30.65C29.9667 46.6333 29.4 47.2 29.4 47.8833C29.4 48.5666 29.9667 49.1333 30.65 49.1333H38.5667V46.6333Z" fill="#DEDEDE"/>
<path d="M53.15 60.8C46.9467 60.8 41.9 55.755 41.9 49.55C41.9 43.345 46.9467 38.3 53.15 38.3C59.3534 38.3 64.4 43.345 64.4 49.55C64.4 55.755 59.3534 60.8 53.15 60.8Z" fill="#F9BE3D"/>
<path d="M51.4833 54.55C51.0417 54.55 50.6183 54.3733 50.305 54.0616L46.9717 50.7283C46.32 50.0766 46.32 49.0233 46.9717 48.3716C47.6233 47.72 48.6767 47.72 49.3283 48.3716L51.4017 50.445L56.0617 45.12C56.6683 44.43 57.72 44.3566 58.4133 44.9633C59.1067 45.5683 59.175 46.62 58.57 47.3133L52.7367 53.98C52.4333 54.3283 52 54.5333 51.5383 54.55H51.4833Z" fill="white"/>
<path d="M53.15 38.3C46.9467 38.3 41.9 43.345 41.9 49.55C41.9 55.755 46.9467 60.8 53.15 60.8V53.5083L52.7367 53.98C52.4334 54.3283 52 54.5333 51.5384 54.55H51.4834C51.0417 54.55 50.6184 54.3733 50.305 54.0617L46.9717 50.7283C46.32 50.0767 46.32 49.0233 46.9717 48.3717C47.2967 48.0467 47.7234 47.8833 48.15 47.8833C48.5767 47.8833 49.0034 48.0467 49.3284 48.3717L51.4017 50.445L53.15 48.4467V38.3Z" fill="#F0B025"/>
<path d="M48.15 47.8833C47.7233 47.8833 47.2967 48.0466 46.9717 48.3716C46.32 49.0233 46.32 50.0766 46.9717 50.7283L50.305 54.0616C50.6183 54.375 51.0417 54.55 51.4833 54.55H51.5383C52 54.5333 52.4333 54.3283 52.7367 53.98L53.15 53.5083V48.4466L51.4017 50.445L49.3283 48.3716C49.0033 48.0466 48.5767 47.8833 48.15 47.8833Z" fill="#DEDEDE"/>
</g>
<defs>
<clipPath id="clip0_2019_40673">
<rect width="40" height="40" fill="white" transform="translate(24.4 20.8)"/>
</clipPath>
</defs>
</svg>
