<svg width="36" height="12" viewBox="0 0 36 12" fill="none" xmlns="http://www.w3.org/2000/svg">
<path d="M12.7166 10.9031L14.5373 0.21875H17.4495L15.6274 10.9031H12.7166Z" fill="white"/>
<path d="M26.1489 0.448741C25.572 0.232284 24.6679 0 23.5389 0C20.6612 0 18.6343 1.4491 18.617 3.52596C18.6008 5.06119 20.0641 5.91763 21.1688 6.4287C22.3023 6.95248 22.6834 7.28644 22.6779 7.75401C22.6707 8.47024 21.7727 8.79733 20.9356 8.79733C19.7701 8.79733 19.1508 8.6354 18.1944 8.23659L17.8191 8.06675L17.4104 10.4585C18.0906 10.7568 19.3484 11.0152 20.6544 11.0286C23.7157 11.0286 25.703 9.59602 25.7256 7.37819C25.7364 6.16274 24.9606 5.23786 23.2804 4.47529C22.2626 3.98103 21.6392 3.65122 21.6458 3.15074C21.6458 2.70664 22.1734 2.23175 23.3136 2.23175C24.2658 2.21696 24.9558 2.42463 25.4932 2.64109L25.7542 2.76438L26.1489 0.448741Z" fill="white"/>
<path d="M33.6432 0.21875H31.3929C30.6958 0.21875 30.1741 0.409009 29.868 1.10477L25.543 10.8962H28.601C28.601 10.8962 29.101 9.57971 29.2141 9.29061C29.5482 9.29061 32.519 9.29519 32.9437 9.29519C33.0308 9.66927 33.298 10.8962 33.298 10.8962H36.0003L33.6432 0.21875ZM30.0728 7.11785C30.3137 6.50227 31.2332 4.13112 31.2332 4.13112C31.216 4.15956 31.4723 3.51254 31.6193 3.11139L31.8161 4.03256C31.8161 4.03256 32.3737 6.58293 32.4903 7.11769H30.0728V7.11785Z" fill="white"/>
<path d="M0.0372026 0.21875L0 0.441006C1.15121 0.719682 2.17941 1.12302 3.07961 1.62477L5.66365 10.886L8.74485 10.8826L13.3296 0.21875H10.2446L7.39351 7.50471L7.08982 6.02396C7.07559 5.97821 7.06012 5.93238 7.0443 5.88645L6.05315 1.12078C5.87692 0.444231 5.36566 0.242328 4.73315 0.21875H0.0372026Z" fill="white"/>
</svg>
