<svg width="22" height="22" viewBox="0 0 22 22" fill="none" xmlns="http://www.w3.org/2000/svg">
<path d="M20.8768 5.8446C20.6391 4.96101 19.9424 4.26449 19.059 4.02657C17.445 3.58496 10.989 3.58496 10.989 3.58496C10.989 3.58496 4.53324 3.58496 2.91927 4.00982C2.05281 4.24749 1.33916 4.96114 1.10149 5.8446C0.676758 7.45844 0.676758 10.8053 0.676758 10.8053C0.676758 10.8053 0.676758 14.1691 1.10149 15.7661C1.33942 16.6496 2.03581 17.3461 2.9194 17.584C4.55024 18.0257 10.9893 18.0257 10.9893 18.0257C10.9893 18.0257 17.445 18.0257 19.059 17.6009C19.9426 17.3631 20.6391 16.6666 20.877 15.7831C21.3016 14.1691 21.3016 10.8223 21.3016 10.8223C21.3016 10.8223 21.3186 7.45844 20.8768 5.8446ZM8.93355 13.8973V7.71336L14.302 10.8053L8.93355 13.8973Z" fill="white"/>
</svg>
